{"glyphs":{"0":{"ha":931,"x_min":56,"x_max":875,"o":"m 625 708 q 542 792 625 792 l 389 792 q 306 708 306 792 l 306 264 q 389 181 306 181 l 542 181 q 625 264 625 181 l 625 708 m 875 264 q 809 52 875 118 q 597 -14 743 -14 l 333 -14 q 122 52 188 -14 q 56 264 56 118 l 56 708 q 122 920 56 854 q 333 986 188 986 l 597 986 q 809 920 743 986 q 875 708 875 854 l 875 264 z "},"1":{"ha":563,"x_min":0,"x_max":479,"o":"m 229 0 l 229 757 l 69 701 l 0 861 l 257 972 l 479 972 l 479 0 l 229 0 z "},"2":{"ha":819,"x_min":28,"x_max":778,"o":"m 778 667 q 678 463 778 549 q 611 410 647 436 l 313 194 l 778 194 l 778 0 l 28 0 l 28 264 l 528 625 l 528 694 q 444 778 528 778 l 56 778 l 56 972 l 500 972 q 712 906 646 972 q 778 694 778 840 l 778 667 z "},"3":{"ha":847,"x_min":28,"x_max":806,"o":"m 542 -14 q 28 14 310 -14 l 28 201 q 486 181 335 181 q 537 199 518 181 q 556 250 556 218 l 556 306 q 472 389 556 389 l 181 389 l 181 583 l 444 583 q 528 667 528 583 l 528 694 q 444 778 528 778 l 42 778 l 42 972 l 514 972 q 714 910 650 972 q 778 722 778 849 q 740 587 778 639 q 639 514 701 535 q 792 364 751 483 q 806 264 806 321 l 806 250 q 742 50 806 114 q 542 -14 678 -14 z "},"4":{"ha":903,"x_min":28,"x_max":889,"o":"m 542 194 l 28 194 l 28 389 l 361 972 l 639 972 l 306 389 l 542 389 l 542 597 l 792 597 l 792 389 l 889 389 l 889 194 l 792 194 l 792 0 l 542 0 l 542 194 z "},"5":{"ha":833,"x_min":28,"x_max":806,"o":"m 542 -14 q 28 14 310 -14 l 28 201 q 486 181 335 181 q 537 199 518 181 q 556 250 556 218 l 556 319 q 472 403 556 403 l 69 403 l 69 972 l 736 972 l 736 778 l 319 778 l 319 597 l 542 597 q 742 535 678 597 q 806 347 806 474 l 806 250 q 742 50 806 114 q 542 -14 678 -14 z "},"6":{"ha":875,"x_min":56,"x_max":847,"o":"m 319 986 q 778 958 510 986 l 778 771 q 648 778 701 775 q 560 784 594 782 q 493 789 526 786 q 390 792 438 792 q 306 722 306 792 l 306 597 q 542 625 440 625 l 639 625 q 790 568 733 625 q 847 417 847 511 l 847 236 q 783 48 847 110 q 583 -14 719 -14 l 319 -14 q 119 48 183 -14 q 56 236 56 110 l 56 722 q 119 922 56 858 q 319 986 183 986 m 472 431 q 376 425 419 431 q 306 417 332 419 l 306 264 q 389 181 306 181 l 514 181 q 597 264 597 181 l 597 382 q 583 417 597 403 q 549 431 569 431 l 472 431 z "},"7":{"ha":778,"x_min":14,"x_max":764,"o":"m 14 972 l 764 972 l 764 778 l 444 0 l 167 0 l 500 778 l 14 778 l 14 972 z "},"8":{"ha":931,"x_min":42,"x_max":889,"o":"m 375 389 q 292 306 292 389 l 292 250 q 310 199 292 218 q 361 181 329 181 l 569 181 q 620 199 601 181 q 639 250 639 218 l 639 306 q 556 389 639 389 l 375 389 m 403 792 q 319 708 319 792 l 319 667 q 403 583 319 583 l 528 583 q 611 667 611 583 l 611 708 q 528 792 611 792 l 403 792 m 889 250 q 825 50 889 114 q 625 -14 761 -14 l 306 -14 q 106 50 169 -14 q 42 250 42 114 l 42 264 q 94 439 42 369 q 208 514 136 494 q 108 587 146 535 q 69 722 69 639 l 69 736 q 133 924 69 863 q 333 986 197 986 l 597 986 q 797 924 733 986 q 861 736 861 863 l 861 722 q 823 587 861 639 q 722 514 785 535 q 875 364 835 483 q 889 264 889 321 l 889 250 z "},"9":{"ha":875,"x_min":28,"x_max":819,"o":"m 97 201 q 500 181 383 181 q 551 199 532 181 q 569 250 569 218 l 569 375 q 333 347 435 347 l 236 347 q 85 404 142 347 q 28 556 28 461 l 28 736 q 92 924 28 863 q 292 986 156 986 l 556 986 q 756 924 692 986 q 819 736 819 863 l 819 250 q 756 50 819 114 q 556 -14 692 -14 q 97 14 365 -14 l 97 201 m 403 542 q 569 556 482 542 l 569 708 q 486 792 569 792 l 361 792 q 278 708 278 792 l 278 590 q 292 556 278 569 q 326 542 306 542 l 403 542 z "}," ":{"ha":417,"x_min":0,"x_max":0,"o":""},"!":{"ha":389,"x_min":69,"x_max":319,"o":"m 69 208 l 319 208 l 319 0 l 69 0 l 69 208 m 97 292 l 69 583 l 69 972 l 319 972 l 319 583 l 292 292 l 97 292 z "},"\"":{"ha":556,"x_min":42,"x_max":514,"o":"m 69 625 l 42 847 l 42 972 l 250 972 l 250 847 l 222 625 l 69 625 m 333 625 l 306 847 l 306 972 l 514 972 l 514 847 l 486 625 l 333 625 z "},"#":{"ha":1014,"x_min":14,"x_max":1000,"o":"m 97 0 l 142 208 l 14 208 l 14 389 l 181 389 l 222 583 l 69 583 l 69 764 l 261 764 l 306 972 l 528 972 l 483 764 l 650 764 l 694 972 l 917 972 l 872 764 l 1000 764 l 1000 583 l 833 583 l 792 389 l 944 389 l 944 208 l 753 208 l 708 0 l 486 0 l 531 208 l 364 208 l 319 0 l 97 0 m 403 389 l 569 389 l 611 583 l 444 583 l 403 389 z "},"$":{"ha":874,"x_min":42,"x_max":832,"o":"m 54 201 q 513 181 376 181 q 563 199 544 181 q 582 250 582 218 l 582 389 l 319 389 q 108 455 174 389 q 42 667 42 521 l 42 694 q 108 906 42 840 q 319 972 174 972 l 347 972 l 333 1097 l 542 1097 l 528 972 l 750 972 l 750 778 l 375 778 q 292 694 292 778 l 292 667 q 375 583 292 583 l 568 583 q 768 519 704 583 q 832 319 832 456 l 832 250 q 769 50 832 114 q 569 -14 706 -14 l 531 -14 l 542 -139 l 333 -139 l 347 -7 q 54 14 186 1 l 54 201 z "},"%":{"ha":1194,"x_min":28,"x_max":1167,"o":"m 208 0 l 764 972 l 972 972 l 431 0 l 208 0 m 500 646 q 455 517 500 563 q 326 472 410 472 l 201 472 q 73 517 118 472 q 28 646 28 563 l 28 813 q 73 941 28 896 q 201 986 118 986 l 326 986 q 455 941 410 986 q 500 813 500 896 l 500 646 m 333 813 q 285 861 333 861 l 243 861 q 194 813 194 861 l 194 646 q 243 597 194 597 l 285 597 q 333 646 333 597 l 333 813 m 1167 160 q 1122 31 1167 76 q 993 -14 1076 -14 l 868 -14 q 740 31 785 -14 q 694 160 694 76 l 694 326 q 740 455 694 410 q 868 500 785 500 l 993 500 q 1122 455 1076 500 q 1167 326 1167 410 l 1167 160 m 1000 326 q 951 375 1000 375 l 910 375 q 861 326 861 375 l 861 160 q 910 111 861 111 l 951 111 q 1000 160 1000 111 l 1000 326 z "},"&":{"ha":1000,"x_min":42,"x_max":986,"o":"m 875 14 q 306 -14 560 -14 q 106 50 169 -14 q 42 250 42 114 q 94 425 42 356 q 208 500 136 481 q 108 573 146 521 q 69 708 69 625 l 69 722 q 133 910 69 849 q 333 972 197 972 l 778 972 l 778 778 l 403 778 q 319 694 319 778 l 319 653 q 403 569 319 569 l 625 569 l 646 681 l 875 681 l 875 569 l 986 569 l 986 375 l 875 375 l 875 14 m 361 181 q 625 188 514 181 l 625 375 l 375 375 q 292 292 292 375 l 292 250 q 310 199 292 218 q 361 181 329 181 z "},"'":{"ha":292,"x_min":42,"x_max":250,"o":"m 69 625 l 42 847 l 42 972 l 250 972 l 250 847 l 222 625 l 69 625 z "},"(":{"ha":451,"x_min":42,"x_max":465,"o":"m 292 410 q 465 -222 292 43 l 347 -319 q 121 6 200 -183 q 42 410 42 194 q 121 814 42 625 q 347 1139 200 1003 l 465 1042 q 292 410 292 776 z "},")":{"ha":451,"x_min":-14,"x_max":410,"o":"m 160 410 q -14 1042 160 776 l 104 1139 q 331 814 251 1003 q 410 410 410 625 q 331 6 410 194 q 104 -319 251 -183 l -14 -222 q 160 410 160 43 z "},"*":{"ha":688,"x_min":14,"x_max":674,"o":"m 431 507 l 431 333 l 257 333 l 257 507 l 97 417 l 14 556 l 181 653 l 14 750 l 97 889 l 257 799 l 257 972 l 431 972 l 431 799 l 590 889 l 674 750 l 507 653 l 674 556 l 590 417 l 431 507 z "},"+":{"ha":750,"x_min":42,"x_max":708,"o":"m 472 583 l 708 583 l 708 389 l 472 389 l 472 153 l 278 153 l 278 389 l 42 389 l 42 583 l 278 583 l 278 819 l 472 819 l 472 583 z "},",":{"ha":333,"x_min":42,"x_max":292,"o":"m 42 208 l 292 208 l 292 14 l 194 -139 l 69 -139 l 125 0 l 42 0 l 42 208 z "},"-":{"ha":653,"x_min":42,"x_max":611,"o":"m 42 389 l 42 583 l 611 583 l 611 389 l 42 389 z "},".":{"ha":333,"x_min":42,"x_max":292,"o":"m 42 208 l 292 208 l 292 0 l 42 0 l 42 208 z "},"/":{"ha":653,"x_min":0,"x_max":653,"o":"m 0 0 l 417 972 l 653 972 l 250 0 l 0 0 z "},":":{"ha":333,"x_min":42,"x_max":292,"o":"m 42 208 l 292 208 l 292 0 l 42 0 l 42 208 m 42 736 l 292 736 l 292 528 l 42 528 l 42 736 z "},";":{"ha":333,"x_min":42,"x_max":292,"o":"m 42 736 l 292 736 l 292 528 l 42 528 l 42 736 m 42 208 l 292 208 l 292 14 l 194 -139 l 69 -139 l 139 0 l 42 0 l 42 208 z "},"<":{"ha":708,"x_min":28,"x_max":653,"o":"m 653 208 l 653 0 l 28 278 l 28 458 l 653 736 l 653 528 l 257 368 l 653 208 z "},"=":{"ha":681,"x_min":56,"x_max":625,"o":"m 56 542 l 56 722 l 625 722 l 625 542 l 56 542 m 56 250 l 56 431 l 625 431 l 625 250 l 56 250 z "},">":{"ha":708,"x_min":56,"x_max":681,"o":"m 451 368 l 56 528 l 56 736 l 681 458 l 681 278 l 56 0 l 56 208 l 451 368 z "},"?":{"ha":806,"x_min":14,"x_max":778,"o":"m 14 958 q 514 986 282 986 q 714 922 650 986 q 778 722 778 858 l 778 660 q 736 501 778 556 q 590 410 694 446 l 451 361 l 451 292 l 201 292 l 201 486 l 528 604 l 528 722 q 509 773 528 754 q 444 792 490 792 q 228 783 361 792 q 14 771 96 775 l 14 958 m 201 208 l 451 208 l 451 0 l 201 0 l 201 208 z "},"@":{"ha":1069,"x_min":56,"x_max":1028,"o":"m 903 14 q 361 -14 607 -14 q 135 65 214 -14 q 56 292 56 144 l 56 681 q 135 907 56 828 q 361 986 214 986 l 806 986 q 969 927 910 986 q 1028 764 1028 868 l 1028 250 l 833 250 l 819 319 q 699 256 758 276 q 597 236 639 236 l 569 236 q 418 293 475 236 q 361 444 361 350 l 361 493 q 418 644 361 588 q 569 701 475 701 l 806 701 l 806 743 q 788 788 806 769 q 743 806 769 806 l 375 806 q 306 778 333 806 q 278 708 278 750 l 278 264 q 306 194 278 222 q 375 167 333 167 q 903 188 554 167 l 903 14 m 667 424 q 806 451 726 424 l 806 528 l 646 528 q 611 514 625 528 q 597 479 597 500 l 597 472 q 611 438 597 451 q 646 424 625 424 l 667 424 z "},"A":{"ha":986,"x_min":-14,"x_max":1000,"o":"m 257 0 l -14 0 l 354 972 l 632 972 l 1000 0 l 729 0 l 667 174 l 319 174 l 257 0 m 382 354 l 604 354 l 493 681 l 382 354 z "},"B":{"ha":986,"x_min":83,"x_max":944,"o":"m 83 972 l 639 972 q 839 910 775 972 q 903 722 903 849 q 867 587 903 639 q 778 514 831 535 q 931 364 890 483 q 944 264 944 321 q 881 64 944 128 q 681 0 817 0 l 83 0 l 83 972 m 694 306 q 611 389 694 389 l 333 389 l 333 194 l 611 194 q 694 278 694 194 l 694 306 m 653 694 q 569 778 653 778 l 333 778 l 333 583 l 569 583 q 653 667 653 583 l 653 694 z "},"C":{"ha":861,"x_min":56,"x_max":833,"o":"m 833 14 q 319 -14 524 -14 q 119 50 183 -14 q 56 250 56 114 l 56 694 q 122 906 56 840 q 333 972 188 972 l 833 972 l 833 778 l 389 778 q 306 694 306 778 l 306 250 q 324 199 306 218 q 372 181 343 181 q 436 181 401 181 q 508 183 471 182 q 584 186 546 185 q 683 192 622 188 q 833 201 743 196 l 833 14 z "},"D":{"ha":1000,"x_min":83,"x_max":944,"o":"m 625 972 q 863 891 782 972 q 944 653 944 810 l 944 319 q 863 81 944 163 q 625 0 782 0 l 83 0 l 83 972 l 625 972 m 694 653 q 569 778 694 778 l 333 778 l 333 194 l 569 194 q 694 319 694 194 l 694 653 z "},"E":{"ha":882,"x_min":83,"x_max":854,"o":"m 854 0 l 83 0 l 83 972 l 854 972 l 854 778 l 333 778 l 333 590 l 743 590 l 743 396 l 333 396 l 333 194 l 854 194 l 854 0 z "},"F":{"ha":868,"x_min":83,"x_max":854,"o":"m 333 0 l 83 0 l 83 972 l 854 972 l 854 778 l 333 778 l 333 549 l 743 549 l 743 354 l 333 354 l 333 0 z "},"G":{"ha":972,"x_min":56,"x_max":917,"o":"m 917 21 q 319 -14 592 -14 q 119 50 183 -14 q 56 250 56 114 l 56 694 q 122 906 56 840 q 333 972 188 972 l 833 972 l 833 778 l 389 778 q 306 694 306 778 l 306 250 q 324 199 306 218 q 375 181 343 181 q 667 188 535 181 l 667 389 l 486 389 l 486 556 l 917 556 l 917 21 z "},"H":{"ha":1014,"x_min":83,"x_max":931,"o":"m 931 0 l 681 0 l 681 396 l 333 396 l 333 0 l 83 0 l 83 972 l 333 972 l 333 590 l 681 590 l 681 972 l 931 972 l 931 0 z "},"I":{"ha":583,"x_min":42,"x_max":542,"o":"m 542 0 l 42 0 l 42 194 l 167 194 l 167 778 l 42 778 l 42 972 l 542 972 l 542 778 l 417 778 l 417 194 l 542 194 l 542 0 z "},"J":{"ha":639,"x_min":14,"x_max":556,"o":"m 556 250 q 492 50 556 114 q 295 -14 428 -14 q 14 0 163 -14 l 14 188 q 236 181 122 181 q 287 199 268 181 q 306 250 306 218 l 306 778 l 125 778 l 125 972 l 556 972 l 556 250 z "},"K":{"ha":939,"x_min":83,"x_max":939,"o":"m 333 0 l 83 0 l 83 972 l 333 972 l 333 590 l 458 590 l 675 972 l 939 972 l 667 493 l 938 0 l 674 0 l 458 396 l 333 396 l 333 0 z "},"L":{"ha":854,"x_min":83,"x_max":840,"o":"m 333 194 l 840 194 l 840 0 l 83 0 l 83 972 l 333 972 l 333 194 z "},"M":{"ha":1250,"x_min":83,"x_max":1167,"o":"m 917 542 l 722 194 l 528 194 l 333 542 l 333 0 l 83 0 l 83 972 l 347 972 l 625 458 l 903 972 l 1167 972 l 1167 0 l 917 0 l 917 542 z "},"N":{"ha":1014,"x_min":83,"x_max":931,"o":"m 931 0 l 667 0 l 333 583 l 333 0 l 83 0 l 83 972 l 347 972 l 681 389 l 681 972 l 931 972 l 931 0 z "},"O":{"ha":1014,"x_min":56,"x_max":958,"o":"m 708 708 q 625 792 708 792 l 389 792 q 306 708 306 792 l 306 264 q 389 181 306 181 l 625 181 q 708 264 708 181 l 708 708 m 958 264 q 892 52 958 118 q 681 -14 826 -14 l 333 -14 q 122 52 188 -14 q 56 264 56 118 l 56 708 q 122 920 56 854 q 333 986 188 986 l 681 986 q 892 920 826 986 q 958 708 958 854 l 958 264 z "},"P":{"ha":986,"x_min":83,"x_max":944,"o":"m 83 972 l 667 972 q 878 906 813 972 q 944 694 944 840 l 944 556 q 878 344 944 410 q 667 278 813 278 l 333 278 l 333 0 l 83 0 l 83 972 m 694 694 q 611 778 694 778 l 333 778 l 333 472 l 611 472 q 694 556 694 472 l 694 694 z "},"Q":{"ha":1014,"x_min":56,"x_max":958,"o":"m 764 -222 q 578 -236 667 -236 q 432 -179 489 -236 q 375 -28 375 -122 l 375 -14 l 333 -14 q 122 52 188 -14 q 56 264 56 118 l 56 708 q 122 920 56 854 q 333 986 188 986 l 681 986 q 892 920 826 986 q 958 708 958 854 l 958 264 q 892 52 958 118 q 681 -14 826 -14 l 611 -14 l 611 -28 q 625 -62 611 -49 q 660 -76 639 -76 l 764 -76 l 764 -222 m 708 708 q 625 792 708 792 l 389 792 q 306 708 306 792 l 306 264 q 389 181 306 181 l 625 181 q 708 264 708 181 l 708 708 z "},"R":{"ha":1000,"x_min":83,"x_max":958,"o":"m 83 972 l 667 972 q 878 906 813 972 q 944 694 944 840 l 944 569 q 906 390 944 454 q 785 306 868 326 l 958 0 l 688 0 l 528 292 l 333 292 l 333 0 l 83 0 l 83 972 m 694 694 q 611 778 694 778 l 333 778 l 333 486 l 611 486 q 694 569 694 486 l 694 694 z "},"S":{"ha":931,"x_min":42,"x_max":889,"o":"m 54 201 q 569 181 435 181 q 620 199 601 181 q 639 250 639 218 l 639 375 l 319 375 q 108 441 174 375 q 42 653 42 507 l 42 694 q 108 906 42 840 q 319 972 174 972 l 807 972 l 807 778 l 375 778 q 292 694 292 778 l 292 667 q 375 583 292 583 l 625 583 q 825 519 761 583 q 889 319 889 456 l 889 250 q 825 50 889 114 q 625 -14 761 -14 q 475 -11 554 -14 l 347 -6 q 54 14 206 1 l 54 201 z "},"T":{"ha":861,"x_min":14,"x_max":847,"o":"m 556 0 l 306 0 l 306 778 l 14 778 l 14 972 l 847 972 l 847 778 l 556 778 l 556 0 z "},"U":{"ha":1042,"x_min":83,"x_max":958,"o":"m 708 972 l 958 972 l 958 264 q 892 52 958 118 q 681 -14 826 -14 l 361 -14 q 149 52 215 -14 q 83 264 83 118 l 83 972 l 333 972 l 333 264 q 417 181 333 181 l 625 181 q 708 264 708 181 l 708 972 z "},"V":{"ha":986,"x_min":-14,"x_max":1000,"o":"m 493 292 l 729 972 l 1000 972 l 632 0 l 354 0 l -14 972 l 257 972 l 493 292 z "},"W":{"ha":1361,"x_min":-14,"x_max":1375,"o":"m 792 972 l 958 347 l 1104 972 l 1375 972 l 1111 0 l 847 0 l 681 604 l 514 0 l 250 0 l -14 972 l 257 972 l 403 347 l 569 972 l 792 972 z "},"X":{"ha":917,"x_min":-14,"x_max":931,"o":"m 646 972 l 924 972 l 611 486 l 931 0 l 653 0 l 458 306 l 264 0 l -14 0 l 306 486 l -7 972 l 269 972 l 458 667 l 646 972 z "},"Y":{"ha":931,"x_min":-28,"x_max":958,"o":"m -28 972 l 236 972 l 465 500 l 694 972 l 958 972 l 590 257 l 590 0 l 340 0 l 340 257 l -28 972 z "},"Z":{"ha":847,"x_min":28,"x_max":819,"o":"m 819 778 l 333 194 l 819 194 l 819 0 l 28 0 l 28 194 l 514 778 l 28 778 l 28 972 l 819 972 l 819 778 z "},"[":{"ha":500,"x_min":83,"x_max":500,"o":"m 83 1111 l 500 1111 l 500 917 l 333 917 l 333 -97 l 500 -97 l 500 -292 l 83 -292 l 83 1111 z "},"\\":{"ha":653,"x_min":0,"x_max":653,"o":"m 403 0 l 0 972 l 236 972 l 653 0 l 403 0 z "},"]":{"ha":500,"x_min":0,"x_max":417,"o":"m 417 -292 l 0 -292 l 0 -97 l 167 -97 l 167 917 l 0 917 l 0 1111 l 417 1111 l 417 -292 z "},"^":{"ha":708,"x_min":0,"x_max":708,"o":"m 458 972 l 708 556 l 500 556 l 354 806 l 208 556 l 0 556 l 250 972 l 458 972 z "},"_":{"ha":653,"x_min":42,"x_max":611,"o":"m 42 -264 l 42 -69 l 611 -69 l 611 -264 l 42 -264 z "},"`":{"ha":347,"x_min":0,"x_max":319,"o":"m 153 750 l 0 986 l 236 986 l 319 750 l 153 750 z "},"a":{"ha":826,"x_min":35,"x_max":771,"o":"m 361 181 q 528 208 435 181 l 528 292 l 326 292 q 292 278 306 292 q 278 243 278 264 l 278 229 q 292 194 278 208 q 326 181 306 181 l 361 181 m 104 722 q 563 750 358 750 q 714 693 657 750 q 771 542 771 636 l 771 0 l 556 0 l 542 69 q 408 6 476 26 q 292 -14 339 -14 l 243 -14 q 92 43 149 -14 q 35 194 35 100 l 35 257 q 92 408 35 351 q 243 465 149 465 l 528 465 l 528 521 q 514 556 528 542 q 479 569 500 569 q 280 561 389 569 q 104 549 171 553 l 104 722 z "},"b":{"ha":861,"x_min":69,"x_max":806,"o":"m 563 514 q 549 549 563 535 q 514 563 535 563 l 479 563 q 378 557 421 563 q 313 549 336 551 l 313 188 l 507 188 q 563 243 563 188 l 563 514 m 313 722 q 549 750 447 750 l 597 750 q 749 693 692 750 q 806 542 806 636 l 806 222 q 747 59 806 118 q 583 0 688 0 l 69 0 l 69 972 l 313 972 l 313 722 z "},"c":{"ha":764,"x_min":56,"x_max":722,"o":"m 722 14 q 264 -14 463 -14 q 113 43 169 -14 q 56 194 56 100 l 56 514 q 115 677 56 618 q 278 736 174 736 l 722 736 l 722 549 l 354 549 q 299 493 299 549 l 299 222 q 313 188 299 201 q 347 174 326 174 q 722 194 472 174 l 722 14 z "},"d":{"ha":875,"x_min":56,"x_max":806,"o":"m 590 0 l 576 69 q 442 6 511 26 q 326 -14 374 -14 l 264 -14 q 113 43 169 -14 q 56 194 56 100 l 56 514 q 115 677 56 618 q 278 736 174 736 l 563 736 l 563 972 l 806 972 l 806 0 l 590 0 m 396 188 q 563 215 469 188 l 563 549 l 354 549 q 299 493 299 549 l 299 236 q 313 201 299 215 q 347 188 326 188 l 396 188 z "},"e":{"ha":833,"x_min":56,"x_max":778,"o":"m 354 576 q 299 521 299 576 l 299 444 l 535 444 l 535 521 q 479 576 535 576 l 354 576 m 750 14 q 264 -14 482 -14 q 113 43 169 -14 q 56 194 56 100 l 56 528 q 115 691 56 632 q 278 750 174 750 l 556 750 q 719 691 660 750 q 778 528 778 632 l 778 271 l 299 271 l 299 215 q 313 181 299 194 q 347 167 326 167 q 750 188 485 167 l 750 14 z "},"f":{"ha":625,"x_min":28,"x_max":667,"o":"m 667 785 q 560 793 626 788 q 444 799 493 799 q 382 785 396 799 q 368 750 368 771 l 368 681 l 597 681 l 597 493 l 368 493 l 368 0 l 125 0 l 125 493 l 28 493 l 28 681 l 125 681 l 125 778 q 182 929 125 872 q 333 986 239 986 q 513 981 418 986 q 667 972 607 975 l 667 785 z "},"g":{"ha":861,"x_min":56,"x_max":792,"o":"m 549 56 q 313 28 414 28 l 264 28 q 113 85 169 28 q 56 236 56 142 l 56 514 q 115 677 56 618 q 278 736 174 736 l 792 736 l 792 -42 q 735 -193 792 -136 q 583 -250 678 -250 q 97 -222 365 -250 l 97 -42 q 500 -62 363 -62 q 535 -49 521 -62 q 549 -14 549 -35 l 549 56 m 382 215 q 549 229 469 215 l 549 549 l 354 549 q 299 493 299 549 l 299 264 q 313 229 299 243 q 347 215 326 215 l 382 215 z "},"h":{"ha":875,"x_min":69,"x_max":819,"o":"m 313 722 q 549 750 447 750 l 611 750 q 763 693 706 750 q 819 542 819 636 l 819 0 l 576 0 l 576 514 q 563 549 576 535 q 528 563 549 563 l 479 563 q 383 557 426 563 q 313 549 339 551 l 313 0 l 69 0 l 69 972 l 313 972 l 313 722 z "},"i":{"ha":444,"x_min":28,"x_max":375,"o":"m 375 708 l 375 0 l 132 0 l 132 521 l 28 521 l 28 708 l 375 708 m 132 986 l 375 986 l 375 792 l 132 792 l 132 986 z "},"j":{"ha":417,"x_min":-125,"x_max":347,"o":"m 139 -250 q -125 -236 10 -250 l -125 -56 l 56 -56 q 90 -42 76 -56 q 104 -7 104 -28 l 104 708 l 347 708 l 347 -42 q 290 -193 347 -136 q 139 -250 233 -250 m 104 986 l 347 986 l 347 792 l 104 792 l 104 986 z "},"k":{"ha":833,"x_min":69,"x_max":833,"o":"m 313 292 l 313 0 l 69 0 l 69 972 l 313 972 l 313 479 l 424 479 l 576 736 l 833 736 l 625 382 l 833 0 l 576 0 l 417 292 l 313 292 z "},"l":{"ha":472,"x_min":69,"x_max":444,"o":"m 444 0 q 267 -14 351 -14 q 126 43 183 -14 q 69 194 69 100 l 69 972 l 313 972 l 313 229 q 326 194 313 208 q 361 181 340 181 l 444 181 l 444 0 z "},"m":{"ha":1285,"x_min":69,"x_max":1229,"o":"m 563 750 q 736 667 675 750 q 874 730 800 710 q 1007 750 949 750 l 1021 750 q 1172 693 1115 750 q 1229 542 1229 636 l 1229 0 l 986 0 l 986 500 q 972 535 986 521 q 938 549 958 549 l 931 549 q 771 521 868 549 l 771 0 l 528 0 l 528 500 q 514 535 528 521 q 479 549 500 549 l 472 549 q 313 521 410 549 l 313 0 l 69 0 l 69 736 l 285 736 l 299 667 q 433 730 364 710 q 549 750 501 750 l 563 750 z "},"n":{"ha":875,"x_min":69,"x_max":819,"o":"m 479 549 q 313 521 406 549 l 313 0 l 69 0 l 69 736 l 285 736 l 299 667 q 433 730 364 710 q 549 750 501 750 l 611 750 q 763 693 706 750 q 819 542 819 636 l 819 0 l 576 0 l 576 500 q 563 535 576 521 q 528 549 549 549 l 479 549 z "},"o":{"ha":875,"x_min":56,"x_max":819,"o":"m 819 208 q 760 45 819 104 q 597 -14 701 -14 l 278 -14 q 115 45 174 -14 q 56 208 56 104 l 56 528 q 115 691 56 632 q 278 750 174 750 l 597 750 q 760 691 701 750 q 819 528 819 632 l 819 208 m 576 507 q 521 563 576 563 l 354 563 q 299 507 299 563 l 299 229 q 354 174 299 174 l 521 174 q 576 229 576 174 l 576 507 z "},"p":{"ha":875,"x_min":69,"x_max":819,"o":"m 479 549 q 313 521 406 549 l 313 188 l 521 188 q 576 243 576 188 l 576 500 q 563 535 576 521 q 528 549 549 549 l 479 549 m 313 0 l 313 -236 l 69 -236 l 69 736 l 285 736 l 299 667 q 433 730 364 710 q 549 750 501 750 l 611 750 q 763 693 706 750 q 819 542 819 636 l 819 222 q 760 59 819 118 q 597 0 701 0 l 313 0 z "},"q":{"ha":861,"x_min":56,"x_max":792,"o":"m 382 174 q 549 188 469 174 l 549 549 l 354 549 q 299 493 299 549 l 299 222 q 313 188 299 201 q 347 174 326 174 l 382 174 m 549 14 q 313 -14 414 -14 l 264 -14 q 113 43 169 -14 q 56 194 56 100 l 56 514 q 115 677 56 618 q 278 736 174 736 l 792 736 l 792 -236 l 549 -236 l 549 14 z "},"r":{"ha":639,"x_min":69,"x_max":611,"o":"m 493 535 q 313 493 406 535 l 313 0 l 69 0 l 69 736 l 285 736 l 299 646 q 549 750 418 750 l 611 750 l 611 535 l 493 535 z "},"s":{"ha":806,"x_min":28,"x_max":778,"o":"m 42 194 q 486 174 324 174 q 521 188 507 174 q 535 222 535 201 l 535 271 l 236 271 q 85 328 142 271 q 28 479 28 385 l 28 528 q 85 679 28 622 q 236 736 142 736 l 708 736 l 708 556 l 319 556 q 285 542 299 556 q 271 507 271 528 q 285 472 271 486 q 319 458 299 458 l 569 458 q 721 401 664 458 q 778 250 778 344 l 778 194 q 721 43 778 100 q 569 -14 664 -14 q 42 14 324 -14 l 42 194 z "},"t":{"ha":611,"x_min":28,"x_max":583,"o":"m 583 0 q 319 -14 449 -14 q 168 43 225 -14 q 111 194 111 100 l 111 549 l 28 549 l 28 736 l 111 736 l 139 903 l 354 903 l 354 736 l 528 736 l 528 549 l 354 549 l 354 229 q 368 194 354 208 q 403 181 382 181 l 583 181 l 583 0 z "},"u":{"ha":889,"x_min":69,"x_max":819,"o":"m 410 188 q 576 215 483 188 l 576 736 l 819 736 l 819 0 l 604 0 l 590 69 q 456 6 525 26 q 340 -14 388 -14 l 278 -14 q 126 43 183 -14 q 69 194 69 100 l 69 736 l 313 736 l 313 236 q 326 201 313 215 q 361 188 340 188 l 410 188 z "},"v":{"ha":806,"x_min":-14,"x_max":819,"o":"m 563 736 l 819 736 l 542 0 l 264 0 l -14 736 l 243 736 l 403 236 l 563 736 z "},"w":{"ha":1222,"x_min":-14,"x_max":1236,"o":"m 847 292 l 972 736 l 1236 736 l 1007 0 l 750 0 l 611 444 l 472 0 l 215 0 l -14 736 l 250 736 l 375 292 l 500 736 l 722 736 l 847 292 z "},"x":{"ha":764,"x_min":-14,"x_max":778,"o":"m 500 736 l 771 736 l 549 368 l 778 0 l 507 0 l 382 222 l 257 0 l -14 0 l 215 368 l -7 736 l 264 736 l 382 514 l 500 736 z "},"y":{"ha":792,"x_min":-14,"x_max":819,"o":"m 264 -250 q 83 -236 190 -250 l 83 -56 l 208 -56 q 277 -26 261 -56 q 271 56 293 3 l -14 736 l 243 736 l 417 264 l 563 736 l 819 736 l 542 -28 q 438 -194 501 -137 q 264 -250 374 -250 z "},"z":{"ha":743,"x_min":28,"x_max":715,"o":"m 715 549 l 333 188 l 715 188 l 715 0 l 28 0 l 28 188 l 410 549 l 28 549 l 28 736 l 715 736 l 715 549 z "},"{":{"ha":514,"x_min":14,"x_max":514,"o":"m 250 410 q 375 236 375 357 l 375 -49 q 389 -83 375 -69 q 424 -97 403 -97 l 514 -97 l 514 -292 l 333 -292 q 182 -235 239 -292 q 125 -83 125 -178 l 125 264 q 111 299 125 285 q 76 313 97 313 l 14 313 l 14 507 l 76 507 q 111 521 97 507 q 125 556 125 535 l 125 903 q 182 1054 125 997 q 333 1111 239 1111 l 514 1111 l 514 917 l 424 917 q 389 903 403 917 q 375 868 375 889 l 375 583 q 250 410 375 463 z "},"|":{"ha":417,"x_min":83,"x_max":333,"o":"m 333 -236 l 83 -236 l 83 972 l 333 972 l 333 -236 z "},"}":{"ha":514,"x_min":0,"x_max":500,"o":"m 264 410 q 139 583 139 463 l 139 868 q 125 903 139 889 q 90 917 111 917 l 0 917 l 0 1111 l 181 1111 q 332 1054 275 1111 q 389 903 389 997 l 389 556 q 403 521 389 535 q 438 507 417 507 l 500 507 l 500 313 l 438 313 q 403 299 417 313 q 389 264 389 285 l 389 -83 q 332 -235 389 -178 q 181 -292 275 -292 l 0 -292 l 0 -97 l 90 -97 q 125 -83 111 -97 q 139 -49 139 -69 l 139 236 q 264 410 139 357 z "},"~":{"ha":696,"x_min":14,"x_max":682,"o":"m 243 424 q 118 347 179 424 l 14 458 q 131 604 50 549 q 222 632 171 632 q 302 619 274 632 q 353 590 331 606 q 398 562 376 575 q 451 549 419 549 q 578 625 515 549 l 682 514 q 564 367 643 421 q 472 340 524 340 q 392 353 421 340 q 341 382 364 367 q 296 410 318 397 q 243 424 274 424 z "},"¡":{"ha":389,"x_min":69,"x_max":319,"o":"m 69 736 l 319 736 l 319 528 l 69 528 l 69 736 m 292 444 l 319 153 l 319 -236 l 69 -236 l 69 153 l 97 444 l 292 444 z "},"¢":{"ha":764,"x_min":56,"x_max":722,"o":"m 722 14 q 514 -3 632 4 l 528 -125 l 319 -125 l 332 -12 q 297 -14 314 -14 l 264 -14 q 113 43 169 -14 q 56 194 56 100 l 56 514 q 115 677 56 618 q 278 736 174 736 l 333 736 l 319 861 l 528 861 l 514 736 l 722 736 l 722 549 l 354 549 q 299 493 299 549 l 299 222 q 313 188 299 201 q 347 174 326 174 q 722 194 472 174 l 722 14 z "},"£":{"ha":785,"x_min":21,"x_max":771,"o":"m 361 333 q 319 194 361 247 l 771 194 l 771 0 l 28 0 l 28 167 q 118 243 118 167 l 118 410 l 21 410 l 21 597 l 118 597 l 118 778 q 175 929 118 872 q 326 986 232 986 q 526 981 419 986 q 701 972 632 975 l 701 785 q 606 792 653 788 q 410 799 504 799 q 375 785 389 799 q 361 750 361 771 l 361 597 l 576 597 l 576 410 l 361 410 l 361 333 z "},"¤":{"ha":1014,"x_min":14,"x_max":972,"o":"m 361 0 l 111 0 l 111 153 l 14 153 l 28 299 l 111 299 l 111 354 l 14 354 l 28 506 l 111 506 l 111 972 l 694 972 q 906 906 840 972 q 972 694 972 840 l 972 639 q 907 423 972 492 q 694 354 842 354 l 361 354 l 361 299 l 722 299 l 722 153 l 361 153 l 361 0 m 722 694 q 639 778 722 778 l 361 778 l 361 500 l 639 500 q 722 583 722 500 l 722 694 z "},"¥":{"ha":931,"x_min":-28,"x_max":958,"o":"m 340 0 l 340 181 l 125 181 l 125 326 l 306 326 l 278 382 l 125 382 l 125 528 l 201 528 l -28 972 l 236 972 l 465 500 l 694 972 l 958 972 l 729 528 l 806 528 l 806 382 l 653 382 l 625 326 l 806 326 l 806 181 l 590 181 l 590 0 l 340 0 z "},"¦":{"ha":417,"x_min":83,"x_max":333,"o":"m 333 458 l 83 458 l 83 972 l 333 972 l 333 458 m 83 -236 l 83 278 l 333 278 l 333 -236 l 83 -236 z "},"§":{"ha":819,"x_min":42,"x_max":778,"o":"m 125 563 q 42 708 42 615 l 42 764 q 99 915 42 858 q 250 972 156 972 l 694 972 l 694 792 l 340 792 q 306 778 319 792 q 292 743 292 764 l 292 715 q 347 667 292 675 l 569 632 q 724 565 669 617 q 778 424 778 513 l 778 340 q 757 244 778 288 q 694 181 736 201 q 778 35 778 128 l 778 -42 q 721 -193 778 -136 q 569 -250 664 -250 q 56 -222 329 -250 l 56 -35 q 479 -56 317 -56 q 514 -42 500 -56 q 528 -7 528 -28 l 528 63 l 250 104 q 96 172 150 119 q 42 313 42 224 l 42 403 q 63 499 42 456 q 125 563 83 542 m 292 340 q 347 292 292 300 l 479 271 q 514 285 500 271 q 528 319 528 299 l 528 444 l 340 472 q 306 458 319 472 q 292 424 292 444 l 292 340 z "},"¨":{"ha":556,"x_min":0,"x_max":556,"o":"m 319 1118 l 556 1118 l 556 924 l 319 924 l 319 1118 m 0 1118 l 236 1118 l 236 924 l 0 924 l 0 1118 z "},"©":{"ha":1181,"x_min":28,"x_max":1153,"o":"m 28 681 q 107 907 28 828 q 333 986 186 986 l 847 986 q 1074 907 994 986 q 1153 681 1153 828 l 1153 292 q 1074 65 1153 144 q 847 -14 994 -14 l 333 -14 q 107 65 186 -14 q 28 292 28 144 l 28 681 m 944 722 q 917 792 944 764 q 847 819 889 819 l 333 819 q 264 792 292 819 q 236 722 236 764 l 236 250 q 264 181 236 208 q 333 153 292 153 l 847 153 q 917 181 889 153 q 944 250 944 208 l 944 722 m 576 354 q 826 375 669 354 l 826 236 q 507 215 644 215 q 384 259 428 215 q 340 382 340 303 l 340 569 q 385 698 340 653 q 514 743 431 743 l 826 743 l 826 604 l 583 604 q 535 556 535 604 l 535 396 q 576 354 535 354 z "},"ª":{"ha":507,"x_min":14,"x_max":479,"o":"m 222 590 q 313 611 261 590 l 313 681 l 215 681 q 181 646 181 681 l 181 625 q 215 590 181 590 l 222 590 m 319 528 q 160 472 229 472 l 153 472 q 52 510 90 472 q 14 611 14 549 l 14 653 q 52 753 14 715 q 153 792 90 792 l 313 792 l 313 833 q 271 875 313 875 q 161 867 222 875 q 63 854 100 858 l 63 965 q 139 975 100 969 q 316 986 233 986 q 439 947 399 986 q 479 840 479 908 l 479 486 l 333 486 l 319 528 z "},"«":{"ha":849,"x_min":14,"x_max":821,"o":"m 474 125 l 333 0 l 14 368 l 333 736 l 474 613 l 263 368 l 474 125 m 610 368 l 821 125 l 681 0 l 361 368 l 681 736 l 821 613 l 610 368 z "},"¬":{"ha":750,"x_min":56,"x_max":694,"o":"m 694 306 l 500 306 l 500 431 l 56 431 l 56 625 l 694 625 l 694 306 z "},"­":{"ha":653,"x_min":42,"x_max":611,"o":"m 42 389 l 42 583 l 611 583 l 611 389 l 42 389 z "},"®":{"ha":1181,"x_min":28,"x_max":1153,"o":"m 28 681 q 107 907 28 828 q 333 986 186 986 l 847 986 q 1074 907 994 986 q 1153 681 1153 828 l 1153 292 q 1074 65 1153 144 q 847 -14 994 -14 l 333 -14 q 107 65 186 -14 q 28 292 28 144 l 28 681 m 944 722 q 917 792 944 764 q 847 819 889 819 l 333 819 q 264 792 292 819 q 236 722 236 764 l 236 250 q 264 181 236 208 q 333 153 292 153 l 847 153 q 917 181 889 153 q 944 250 944 208 l 944 722 m 590 368 l 535 368 l 535 229 l 340 229 l 340 743 l 694 743 q 823 698 778 743 q 868 569 868 653 l 868 556 q 841 449 868 488 q 778 396 814 411 l 868 229 l 667 229 l 590 368 m 625 493 q 674 542 674 493 l 674 569 q 625 618 674 618 l 535 618 l 535 493 l 625 493 z "},"¯":{"ha":417,"x_min":0,"x_max":417,"o":"m 0 1090 l 417 1090 l 417 924 l 0 924 l 0 1090 z "},"°":{"ha":542,"x_min":28,"x_max":514,"o":"m 514 646 q 469 517 514 563 q 340 472 424 472 l 201 472 q 73 517 118 472 q 28 646 28 563 l 28 813 q 73 941 28 896 q 201 986 118 986 l 340 986 q 469 941 424 986 q 514 813 514 896 l 514 646 m 347 813 q 299 861 347 861 l 243 861 q 194 813 194 861 l 194 646 q 243 597 194 597 l 299 597 q 347 646 347 597 l 347 813 z "},"±":{"ha":750,"x_min":42,"x_max":708,"o":"m 472 611 l 708 611 l 708 417 l 472 417 l 472 264 l 688 264 l 688 69 l 63 69 l 63 264 l 278 264 l 278 417 l 42 417 l 42 611 l 278 611 l 278 819 l 472 819 l 472 611 z "},"²":{"ha":479,"x_min":28,"x_max":451,"o":"m 451 825 q 375 688 451 740 l 243 597 l 451 597 l 451 472 l 28 472 l 28 611 l 285 792 l 285 819 q 243 861 285 861 l 42 861 l 42 986 l 292 986 q 411 947 371 986 q 451 839 451 908 l 451 825 z "},"³":{"ha":486,"x_min":28,"x_max":458,"o":"m 299 472 q 28 493 164 472 l 28 611 q 250 590 174 590 q 292 632 292 590 q 250 674 292 674 l 97 674 l 97 785 l 236 785 q 278 826 278 785 q 236 868 278 868 l 35 868 l 35 986 l 285 986 q 404 949 364 986 q 444 856 444 913 q 371 747 444 772 q 431 709 404 739 q 458 615 458 679 q 418 511 458 550 q 299 472 378 472 z "},"´":{"ha":361,"x_min":14,"x_max":347,"o":"m 14 882 l 97 1118 l 347 1118 l 194 882 l 14 882 z "},"µ":{"ha":889,"x_min":69,"x_max":819,"o":"m 590 69 q 340 0 461 0 l 314 0 l 314 -236 l 69 -236 l 69 736 l 314 736 l 314 250 q 328 215 314 229 q 363 201 342 201 l 410 201 q 576 229 483 201 l 576 736 l 819 736 l 819 0 l 604 0 l 590 69 z "},"¶":{"ha":958,"x_min":28,"x_max":931,"o":"m 28 750 q 87 913 28 854 q 250 972 146 972 l 931 972 l 931 778 l 806 778 l 806 -236 l 590 -236 l 590 778 l 507 778 l 507 -236 l 292 -236 l 292 361 l 250 361 q 87 420 146 361 q 28 583 28 479 l 28 750 z "},"·":{"ha":417,"x_min":83,"x_max":333,"o":"m 83 590 l 333 590 l 333 382 l 83 382 l 83 590 z "},"¸":{"ha":306,"x_min":0,"x_max":306,"o":"m 153 28 l 153 -28 l 167 -28 q 270 -61 235 -28 q 306 -153 306 -94 q 270 -244 306 -211 q 167 -278 235 -278 l 0 -278 l 0 -187 l 139 -187 q 188 -153 188 -187 q 139 -118 188 -118 l 35 -118 l 35 28 l 153 28 z "},"¹":{"ha":347,"x_min":14,"x_max":306,"o":"m 139 472 l 139 847 l 56 819 l 14 924 l 153 986 l 306 986 l 306 472 l 139 472 z "},"º":{"ha":528,"x_min":28,"x_max":500,"o":"m 500 646 q 455 517 500 563 q 326 472 410 472 l 201 472 q 73 517 118 472 q 28 646 28 563 l 28 813 q 73 941 28 896 q 201 986 118 986 l 326 986 q 455 941 410 986 q 500 813 500 896 l 500 646 m 333 813 q 285 861 333 861 l 243 861 q 194 813 194 861 l 194 646 q 243 597 194 597 l 285 597 q 333 646 333 597 l 333 813 z "},"»":{"ha":849,"x_min":28,"x_max":835,"o":"m 28 613 l 168 736 l 488 368 l 168 0 l 28 125 l 239 368 l 28 613 m 586 368 l 375 613 l 515 736 l 835 368 l 515 0 l 375 125 l 586 368 z "},"¼":{"ha":1042,"x_min":14,"x_max":1014,"o":"m 97 0 l 653 972 l 861 972 l 319 0 l 97 0 m 139 472 l 139 847 l 56 819 l 14 924 l 153 986 l 306 986 l 306 472 l 139 472 m 813 90 l 542 90 l 542 215 l 701 500 l 875 500 l 715 215 l 813 215 l 813 306 l 965 306 l 965 215 l 1014 215 l 1014 90 l 965 90 l 965 -14 l 813 -14 l 813 90 z "},"½":{"ha":1090,"x_min":14,"x_max":1049,"o":"m 97 0 l 653 972 l 861 972 l 319 0 l 97 0 m 139 472 l 139 847 l 56 819 l 14 924 l 153 986 l 306 986 l 306 472 l 139 472 m 1049 339 q 972 201 1049 254 l 840 111 l 1049 111 l 1049 -14 l 625 -14 l 625 125 l 882 306 l 882 333 q 840 375 882 375 l 639 375 l 639 500 l 889 500 q 1008 461 968 500 q 1049 353 1049 422 l 1049 339 z "},"¾":{"ha":1139,"x_min":28,"x_max":1111,"o":"m 194 0 l 750 972 l 958 972 l 417 0 l 194 0 m 910 90 l 639 90 l 639 215 l 799 500 l 972 500 l 813 215 l 910 215 l 910 306 l 1063 306 l 1063 215 l 1111 215 l 1111 90 l 1063 90 l 1063 -14 l 910 -14 l 910 90 m 299 472 q 28 493 164 472 l 28 611 q 250 590 174 590 q 292 632 292 590 q 250 674 292 674 l 97 674 l 97 785 l 236 785 q 278 826 278 785 q 236 868 278 868 l 35 868 l 35 986 l 285 986 q 404 949 364 986 q 444 856 444 913 q 371 747 444 772 q 431 709 404 739 q 458 615 458 679 q 418 511 458 550 q 299 472 378 472 z "},"¿":{"ha":806,"x_min":28,"x_max":792,"o":"m 792 -222 q 292 -250 524 -250 q 92 -186 156 -250 q 28 14 28 -122 l 28 76 q 69 235 28 181 q 215 326 113 292 l 354 375 l 354 444 l 604 444 l 604 250 l 278 132 l 278 14 q 297 -37 278 -18 q 347 -56 315 -56 q 792 -35 485 -56 l 792 -222 m 604 528 l 354 528 l 354 736 l 604 736 l 604 528 z "},"À":{"ha":986,"x_min":-14,"x_max":1000,"o":"m 0 0 m 257 0 l -14 0 l 354 972 l 632 972 l 1000 0 l 729 0 l 667 174 l 319 174 l 257 0 m 382 354 l 604 354 l 493 681 l 382 354 m 410 1014 l 257 1250 l 493 1250 l 576 1014 l 410 1014 z "},"Á":{"ha":986,"x_min":-14,"x_max":1000,"o":"m 0 0 m 257 0 l -14 0 l 354 972 l 632 972 l 1000 0 l 729 0 l 667 174 l 319 174 l 257 0 m 382 354 l 604 354 l 493 681 l 382 354 m 396 1015 l 479 1251 l 729 1251 l 576 1015 l 396 1015 z "},"Â":{"ha":986,"x_min":-14,"x_max":1000,"o":"m 0 0 m 257 0 l -14 0 l 354 972 l 632 972 l 1000 0 l 729 0 l 667 174 l 319 174 l 257 0 m 382 354 l 604 354 l 493 681 l 382 354 m 229 1015 l 396 1251 l 590 1251 l 757 1015 l 583 1015 l 493 1126 l 403 1015 l 229 1015 z "},"Ã":{"ha":986,"x_min":-14,"x_max":1000,"o":"m 0 0 m 257 0 l -14 0 l 354 972 l 632 972 l 1000 0 l 729 0 l 667 174 l 319 174 l 257 0 m 382 354 l 604 354 l 493 681 l 382 354 m 576 1168 q 646 1224 621 1168 l 736 1168 q 703 1090 724 1124 q 576 1008 654 1008 q 526 1019 547 1008 q 485 1043 504 1031 q 449 1067 467 1056 q 410 1078 431 1078 q 340 1022 365 1078 l 250 1078 q 332 1213 272 1164 q 401 1238 363 1238 q 460 1226 439 1238 q 501 1203 482 1215 q 538 1179 519 1190 q 576 1168 556 1168 z "},"Ä":{"ha":986,"x_min":-14,"x_max":1000,"o":"m 0 0 m 257 0 l -14 0 l 354 972 l 632 972 l 1000 0 l 729 0 l 667 174 l 319 174 l 257 0 m 382 354 l 604 354 l 493 681 l 382 354 m 535 1210 l 771 1210 l 771 1015 l 535 1015 l 535 1210 m 215 1210 l 451 1210 l 451 1015 l 215 1015 l 215 1210 z "},"Å":{"ha":986,"x_min":-14,"x_max":1000,"o":"m 0 0 m 257 0 l -14 0 l 354 972 l 632 972 l 1000 0 l 729 0 l 667 174 l 319 174 l 257 0 m 382 354 l 604 354 l 493 681 l 382 354 m 535 1286 q 638 1253 603 1286 q 674 1161 674 1219 l 674 1140 q 638 1049 674 1082 q 535 1015 603 1015 l 451 1015 q 348 1049 383 1015 q 313 1140 313 1082 l 313 1161 q 348 1253 313 1219 q 451 1286 383 1286 l 535 1286 m 556 1154 q 514 1196 556 1196 l 472 1196 q 431 1154 431 1196 l 431 1147 q 472 1106 431 1106 l 514 1106 q 556 1147 556 1106 l 556 1154 z "},"Æ":{"ha":1382,"x_min":-14,"x_max":1354,"o":"m -14 0 l 354 972 l 1354 972 l 1354 778 l 889 778 l 889 590 l 1243 590 l 1243 396 l 889 396 l 889 194 l 1354 194 l 1354 0 l 639 0 l 639 174 l 319 174 l 257 0 l -14 0 m 382 354 l 639 354 l 639 778 l 528 778 l 382 354 z "},"Ç":{"ha":861,"x_min":56,"x_max":833,"o":"m 56 0 m 833 14 q 319 -14 524 -14 q 119 50 183 -14 q 56 250 56 114 l 56 694 q 122 906 56 840 q 333 972 188 972 l 833 972 l 833 778 l 389 778 q 306 694 306 778 l 306 250 q 324 199 306 218 q 372 181 343 181 q 436 181 401 181 q 508 183 471 182 q 584 186 546 185 q 683 192 622 188 q 833 201 743 196 l 833 14 m 500 28 l 500 -28 l 514 -28 q 617 -61 582 -28 q 653 -153 653 -94 q 617 -244 653 -211 q 514 -278 582 -278 l 347 -278 l 347 -187 l 486 -187 q 535 -153 535 -187 q 486 -118 535 -118 l 382 -118 l 382 28 l 500 28 z "},"È":{"ha":882,"x_min":83,"x_max":854,"o":"m 83 0 m 854 0 l 83 0 l 83 972 l 854 972 l 854 778 l 333 778 l 333 590 l 743 590 l 743 396 l 333 396 l 333 194 l 854 194 l 854 0 m 419 1015 l 267 1251 l 503 1251 l 586 1015 l 419 1015 z "},"É":{"ha":882,"x_min":83,"x_max":854,"o":"m 83 0 m 854 0 l 83 0 l 83 972 l 854 972 l 854 778 l 333 778 l 333 590 l 743 590 l 743 396 l 333 396 l 333 194 l 854 194 l 854 0 m 371 1015 l 454 1251 l 704 1251 l 551 1015 l 371 1015 z "},"Ê":{"ha":882,"x_min":83,"x_max":854,"o":"m 83 0 m 854 0 l 83 0 l 83 972 l 854 972 l 854 778 l 333 778 l 333 590 l 743 590 l 743 396 l 333 396 l 333 194 l 854 194 l 854 0 m 204 1015 l 371 1251 l 565 1251 l 732 1015 l 558 1015 l 468 1126 l 378 1015 l 204 1015 z "},"Ë":{"ha":882,"x_min":83,"x_max":854,"o":"m 83 0 m 854 0 l 83 0 l 83 972 l 854 972 l 854 778 l 333 778 l 333 590 l 743 590 l 743 396 l 333 396 l 333 194 l 854 194 l 854 0 m 510 1251 l 746 1251 l 746 1057 l 510 1057 l 510 1251 m 190 1251 l 426 1251 l 426 1057 l 190 1057 l 190 1251 z "},"Ì":{"ha":583,"x_min":42,"x_max":542,"o":"m 42 0 m 542 0 l 42 0 l 42 194 l 167 194 l 167 778 l 42 778 l 42 972 l 542 972 l 542 778 l 417 778 l 417 194 l 542 194 l 542 0 m 229 1014 l 76 1250 l 313 1250 l 396 1014 l 229 1014 z "},"Í":{"ha":583,"x_min":42,"x_max":542,"o":"m 42 0 m 542 0 l 42 0 l 42 194 l 167 194 l 167 778 l 42 778 l 42 972 l 542 972 l 542 778 l 417 778 l 417 194 l 542 194 l 542 0 m 194 1015 l 278 1251 l 528 1251 l 375 1015 l 194 1015 z "},"Î":{"ha":583,"x_min":28,"x_max":556,"o":"m 28 0 m 542 0 l 42 0 l 42 194 l 167 194 l 167 778 l 42 778 l 42 972 l 542 972 l 542 778 l 417 778 l 417 194 l 542 194 l 542 0 m 28 1014 l 194 1250 l 389 1250 l 556 1014 l 382 1014 l 292 1125 l 201 1014 l 28 1014 z "},"Ï":{"ha":583,"x_min":14,"x_max":569,"o":"m 14 0 m 542 0 l 42 0 l 42 194 l 167 194 l 167 778 l 42 778 l 42 972 l 542 972 l 542 778 l 417 778 l 417 194 l 542 194 l 542 0 m 333 1251 l 569 1251 l 569 1057 l 333 1057 l 333 1251 m 14 1251 l 250 1251 l 250 1057 l 14 1057 l 14 1251 z "},"Ð":{"ha":1028,"x_min":28,"x_max":972,"o":"m 111 583 l 111 972 l 653 972 q 891 891 810 972 q 972 653 972 810 l 972 319 q 891 81 972 163 q 653 0 810 0 l 111 0 l 111 396 l 28 396 l 28 583 l 111 583 m 722 653 q 597 778 722 778 l 361 778 l 361 583 l 528 583 l 528 396 l 361 396 l 361 194 l 597 194 q 722 319 722 194 l 722 653 z "},"Ñ":{"ha":1014,"x_min":83,"x_max":931,"o":"m 83 0 m 931 0 l 667 0 l 333 583 l 333 0 l 83 0 l 83 972 l 347 972 l 681 389 l 681 972 l 931 972 l 931 0 m 590 1182 q 660 1238 635 1182 l 750 1182 q 717 1104 738 1138 q 590 1022 668 1022 q 540 1033 561 1022 q 499 1057 518 1044 q 463 1081 481 1069 q 424 1092 444 1092 q 354 1036 379 1092 l 264 1092 q 346 1226 286 1178 q 415 1251 376 1251 q 474 1240 453 1251 q 515 1217 496 1229 q 551 1193 533 1204 q 590 1182 569 1182 z "},"Ò":{"ha":1014,"x_min":56,"x_max":958,"o":"m 56 0 m 708 708 q 625 792 708 792 l 389 792 q 306 708 306 792 l 306 264 q 389 181 306 181 l 625 181 q 708 264 708 181 l 708 708 m 958 264 q 892 52 958 118 q 681 -14 826 -14 l 333 -14 q 122 52 188 -14 q 56 264 56 118 l 56 708 q 122 920 56 854 q 333 986 188 986 l 681 986 q 892 920 826 986 q 958 708 958 854 l 958 264 m 444 1028 l 292 1264 l 528 1264 l 611 1028 l 444 1028 z "},"Ó":{"ha":1014,"x_min":56,"x_max":958,"o":"m 56 0 m 708 708 q 625 792 708 792 l 389 792 q 306 708 306 792 l 306 264 q 389 181 306 181 l 625 181 q 708 264 708 181 l 708 708 m 958 264 q 892 52 958 118 q 681 -14 826 -14 l 333 -14 q 122 52 188 -14 q 56 264 56 118 l 56 708 q 122 920 56 854 q 333 986 188 986 l 681 986 q 892 920 826 986 q 958 708 958 854 l 958 264 m 410 1029 l 493 1265 l 743 1265 l 590 1029 l 410 1029 z "},"Ô":{"ha":1014,"x_min":56,"x_max":958,"o":"m 56 0 m 708 708 q 625 792 708 792 l 389 792 q 306 708 306 792 l 306 264 q 389 181 306 181 l 625 181 q 708 264 708 181 l 708 708 m 958 264 q 892 52 958 118 q 681 -14 826 -14 l 333 -14 q 122 52 188 -14 q 56 264 56 118 l 56 708 q 122 920 56 854 q 333 986 188 986 l 681 986 q 892 920 826 986 q 958 708 958 854 l 958 264 m 243 1029 l 410 1265 l 604 1265 l 771 1029 l 597 1029 l 507 1140 l 417 1029 l 243 1029 z "},"Õ":{"ha":1014,"x_min":56,"x_max":958,"o":"m 56 0 m 708 708 q 625 792 708 792 l 389 792 q 306 708 306 792 l 306 264 q 389 181 306 181 l 625 181 q 708 264 708 181 l 708 708 m 958 264 q 892 52 958 118 q 681 -14 826 -14 l 333 -14 q 122 52 188 -14 q 56 264 56 118 l 56 708 q 122 920 56 854 q 333 986 188 986 l 681 986 q 892 920 826 986 q 958 708 958 854 l 958 264 m 590 1196 q 660 1251 635 1196 l 750 1196 q 717 1118 738 1151 q 590 1036 668 1036 q 540 1047 561 1036 q 499 1071 518 1058 q 463 1094 481 1083 q 424 1106 444 1106 q 354 1050 379 1106 l 264 1106 q 346 1240 286 1192 q 415 1265 376 1265 q 474 1254 453 1265 q 515 1231 496 1243 q 551 1207 533 1218 q 590 1196 569 1196 z "},"Ö":{"ha":1014,"x_min":56,"x_max":958,"o":"m 56 0 m 708 708 q 625 792 708 792 l 389 792 q 306 708 306 792 l 306 264 q 389 181 306 181 l 625 181 q 708 264 708 181 l 708 708 m 958 264 q 892 52 958 118 q 681 -14 826 -14 l 333 -14 q 122 52 188 -14 q 56 264 56 118 l 56 708 q 122 920 56 854 q 333 986 188 986 l 681 986 q 892 920 826 986 q 958 708 958 854 l 958 264 m 549 1251 l 785 1251 l 785 1057 l 549 1057 l 549 1251 m 229 1251 l 465 1251 l 465 1057 l 229 1057 l 229 1251 z "},"×":{"ha":750,"x_min":56,"x_max":694,"o":"m 375 625 l 556 806 l 694 667 l 514 486 l 694 306 l 556 167 l 375 347 l 194 167 l 56 306 l 236 486 l 56 667 l 194 806 l 375 625 z "},"Ø":{"ha":1014,"x_min":35,"x_max":979,"o":"m 35 69 l 78 117 q 56 264 56 174 l 56 708 q 122 920 56 854 q 333 986 188 986 l 681 986 q 846 953 781 986 l 882 993 l 979 903 l 935 854 q 958 708 958 799 l 958 264 q 892 52 958 118 q 681 -14 826 -14 l 333 -14 q 168 18 232 -14 l 132 -21 l 35 69 m 306 364 l 682 775 q 625 792 661 792 l 389 792 q 306 708 306 792 l 306 364 m 708 607 l 331 196 q 389 181 350 181 l 625 181 q 708 264 708 181 l 708 607 z "},"Ù":{"ha":1042,"x_min":83,"x_max":958,"o":"m 83 0 m 708 972 l 958 972 l 958 264 q 892 52 958 118 q 681 -14 826 -14 l 361 -14 q 149 52 215 -14 q 83 264 83 118 l 83 972 l 333 972 l 333 264 q 417 181 333 181 l 625 181 q 708 264 708 181 l 708 972 m 458 1001 l 306 1238 l 542 1238 l 625 1001 l 458 1001 z "},"Ú":{"ha":1042,"x_min":83,"x_max":958,"o":"m 83 0 m 708 972 l 958 972 l 958 264 q 892 52 958 118 q 681 -14 826 -14 l 361 -14 q 149 52 215 -14 q 83 264 83 118 l 83 972 l 333 972 l 333 264 q 417 181 333 181 l 625 181 q 708 264 708 181 l 708 972 m 424 1001 l 507 1238 l 757 1238 l 604 1001 l 424 1001 z "},"Û":{"ha":1042,"x_min":83,"x_max":958,"o":"m 83 0 m 708 972 l 958 972 l 958 264 q 892 52 958 118 q 681 -14 826 -14 l 361 -14 q 149 52 215 -14 q 83 264 83 118 l 83 972 l 333 972 l 333 264 q 417 181 333 181 l 625 181 q 708 264 708 181 l 708 972 m 257 1015 l 424 1251 l 618 1251 l 785 1015 l 611 1015 l 521 1126 l 431 1015 l 257 1015 z "},"Ü":{"ha":1042,"x_min":83,"x_max":958,"o":"m 83 0 m 708 972 l 958 972 l 958 264 q 892 52 958 118 q 681 -14 826 -14 l 361 -14 q 149 52 215 -14 q 83 264 83 118 l 83 972 l 333 972 l 333 264 q 417 181 333 181 l 625 181 q 708 264 708 181 l 708 972 m 563 1238 l 799 1238 l 799 1043 l 563 1043 l 563 1238 m 243 1238 l 479 1238 l 479 1043 l 243 1043 l 243 1238 z "},"Ý":{"ha":931,"x_min":-28,"x_max":958,"o":"m 0 0 m -28 972 l 236 972 l 465 500 l 694 972 l 958 972 l 590 257 l 590 0 l 340 0 l 340 257 l -28 972 m 354 1001 l 438 1238 l 688 1238 l 535 1001 l 354 1001 z "},"Þ":{"ha":1014,"x_min":83,"x_max":972,"o":"m 972 375 q 906 163 972 229 q 694 97 840 97 l 333 97 l 333 -14 l 83 -14 l 83 986 l 333 986 l 333 875 l 694 875 q 906 809 840 875 q 972 597 972 743 l 972 375 m 722 597 q 639 681 722 681 l 333 681 l 333 292 l 639 292 q 722 375 722 292 l 722 597 z "},"ß":{"ha":861,"x_min":69,"x_max":833,"o":"m 833 194 q 776 43 833 100 q 628 -14 719 -14 q 444 0 538 -14 l 444 174 l 542 174 q 576 188 563 174 q 590 222 590 201 l 590 347 q 535 403 590 403 l 410 403 l 410 590 l 424 590 q 479 646 479 590 l 479 743 q 424 799 479 799 l 368 799 q 313 743 313 799 l 313 0 l 69 0 l 69 764 q 128 927 69 868 q 292 986 188 986 l 500 986 q 663 927 604 986 q 722 764 722 868 l 722 639 q 681 521 722 563 q 791 459 749 506 q 833 333 833 413 l 833 194 z "},"à":{"ha":826,"x_min":35,"x_max":771,"o":"m 35 0 m 361 181 q 528 208 435 181 l 528 292 l 326 292 q 292 278 306 292 q 278 243 278 264 l 278 229 q 292 194 278 208 q 326 181 306 181 l 361 181 m 104 722 q 563 750 358 750 q 714 693 657 750 q 771 542 771 636 l 771 0 l 556 0 l 542 69 q 408 6 476 26 q 292 -14 339 -14 l 243 -14 q 92 43 149 -14 q 35 194 35 100 l 35 257 q 92 408 35 351 q 243 465 149 465 l 528 465 l 528 521 q 514 556 528 542 q 479 569 500 569 q 280 561 389 569 q 104 549 171 553 l 104 722 m 364 792 l 211 1028 l 447 1028 l 531 792 l 364 792 z "},"á":{"ha":826,"x_min":35,"x_max":771,"o":"m 35 0 m 361 181 q 528 208 435 181 l 528 292 l 326 292 q 292 278 306 292 q 278 243 278 264 l 278 229 q 292 194 278 208 q 326 181 306 181 l 361 181 m 104 722 q 563 750 358 750 q 714 693 657 750 q 771 542 771 636 l 771 0 l 556 0 l 542 69 q 408 6 476 26 q 292 -14 339 -14 l 243 -14 q 92 43 149 -14 q 35 194 35 100 l 35 257 q 92 408 35 351 q 243 465 149 465 l 528 465 l 528 521 q 514 556 528 542 q 479 569 500 569 q 280 561 389 569 q 104 549 171 553 l 104 722 m 304 793 l 388 1029 l 638 1029 l 485 793 l 304 793 z "},"â":{"ha":826,"x_min":35,"x_max":771,"o":"m 35 0 m 361 181 q 528 208 435 181 l 528 292 l 326 292 q 292 278 306 292 q 278 243 278 264 l 278 229 q 292 194 278 208 q 326 181 306 181 l 361 181 m 104 722 q 563 750 358 750 q 714 693 657 750 q 771 542 771 636 l 771 0 l 556 0 l 542 69 q 408 6 476 26 q 292 -14 339 -14 l 243 -14 q 92 43 149 -14 q 35 194 35 100 l 35 257 q 92 408 35 351 q 243 465 149 465 l 528 465 l 528 521 q 514 556 528 542 q 479 569 500 569 q 280 561 389 569 q 104 549 171 553 l 104 722 m 181 793 l 347 1029 l 542 1029 l 708 793 l 535 793 l 444 904 l 354 793 l 181 793 z "},"ã":{"ha":826,"x_min":35,"x_max":771,"o":"m 35 0 m 361 181 q 528 208 435 181 l 528 292 l 326 292 q 292 278 306 292 q 278 243 278 264 l 278 229 q 292 194 278 208 q 326 181 306 181 l 361 181 m 104 722 q 563 750 358 750 q 714 693 657 750 q 771 542 771 636 l 771 0 l 556 0 l 542 69 q 408 6 476 26 q 292 -14 339 -14 l 243 -14 q 92 43 149 -14 q 35 194 35 100 l 35 257 q 92 408 35 351 q 243 465 149 465 l 528 465 l 528 521 q 514 556 528 542 q 479 569 500 569 q 280 561 389 569 q 104 549 171 553 l 104 722 m 524 953 q 593 1008 568 953 l 683 953 q 650 875 671 908 q 524 793 601 793 q 473 804 494 793 q 433 828 451 815 q 396 851 414 840 q 357 863 378 863 q 288 807 313 863 l 197 863 q 279 997 219 949 q 348 1022 310 1022 q 408 1011 386 1022 q 448 988 429 1000 q 485 964 467 975 q 524 953 503 953 z "},"ä":{"ha":826,"x_min":35,"x_max":771,"o":"m 35 0 m 361 181 q 528 208 435 181 l 528 292 l 326 292 q 292 278 306 292 q 278 243 278 264 l 278 229 q 292 194 278 208 q 326 181 306 181 l 361 181 m 104 722 q 563 750 358 750 q 714 693 657 750 q 771 542 771 636 l 771 0 l 556 0 l 542 69 q 408 6 476 26 q 292 -14 339 -14 l 243 -14 q 92 43 149 -14 q 35 194 35 100 l 35 257 q 92 408 35 351 q 243 465 149 465 l 528 465 l 528 521 q 514 556 528 542 q 479 569 500 569 q 280 561 389 569 q 104 549 171 553 l 104 722 m 486 1015 l 722 1015 l 722 821 l 486 821 l 486 1015 m 167 1015 l 403 1015 l 403 821 l 167 821 l 167 1015 z "},"å":{"ha":826,"x_min":35,"x_max":771,"o":"m 35 0 m 361 181 q 528 208 435 181 l 528 292 l 326 292 q 292 278 306 292 q 278 243 278 264 l 278 229 q 292 194 278 208 q 326 181 306 181 l 361 181 m 104 722 q 563 750 358 750 q 714 693 657 750 q 771 542 771 636 l 771 0 l 556 0 l 542 69 q 408 6 476 26 q 292 -14 339 -14 l 243 -14 q 92 43 149 -14 q 35 194 35 100 l 35 257 q 92 408 35 351 q 243 465 149 465 l 528 465 l 528 521 q 514 556 528 542 q 479 569 500 569 q 280 561 389 569 q 104 549 171 553 l 104 722 m 468 1063 q 572 1029 536 1063 q 607 938 607 996 l 607 917 q 572 825 607 858 q 468 792 536 792 l 385 792 q 281 825 317 792 q 246 917 246 858 l 246 938 q 281 1029 246 996 q 385 1063 317 1063 l 468 1063 m 489 931 q 447 972 489 972 l 406 972 q 364 931 364 972 l 364 924 q 406 882 364 882 l 447 882 q 489 924 489 882 l 489 931 z "},"æ":{"ha":1278,"x_min":35,"x_max":1222,"o":"m 104 722 q 500 750 317 750 q 646 701 586 750 q 792 750 700 750 l 1000 750 q 1163 691 1104 750 q 1222 528 1222 632 l 1222 285 l 757 285 l 757 208 q 771 180 757 193 q 806 167 785 167 q 1194 188 944 167 l 1194 14 q 722 -14 935 -14 q 575 31 626 -14 q 542 76 551 50 q 401 7 472 28 q 278 -14 331 -14 l 243 -14 q 92 43 149 -14 q 35 194 35 100 l 35 257 q 92 408 35 351 q 243 465 149 465 l 514 465 l 514 526 q 498 558 511 546 q 447 569 485 569 q 231 558 375 569 l 104 549 l 104 722 m 813 576 q 757 521 757 576 l 757 458 l 979 458 l 979 521 q 924 576 979 576 l 813 576 m 347 181 q 514 208 421 181 l 514 292 l 326 292 q 292 278 306 292 q 278 243 278 264 l 278 229 q 292 194 278 208 q 326 181 306 181 l 347 181 z "},"ç":{"ha":764,"x_min":56,"x_max":722,"o":"m 56 0 m 722 14 q 264 -14 463 -14 q 113 43 169 -14 q 56 194 56 100 l 56 514 q 115 677 56 618 q 278 736 174 736 l 722 736 l 722 549 l 354 549 q 299 493 299 549 l 299 222 q 313 188 299 201 q 347 174 326 174 q 722 194 472 174 l 722 14 m 438 28 l 438 -28 l 451 -28 q 555 -61 519 -28 q 590 -153 590 -94 q 555 -244 590 -211 q 451 -278 519 -278 l 285 -278 l 285 -187 l 424 -187 q 472 -153 472 -187 q 424 -118 472 -118 l 319 -118 l 319 28 l 438 28 z "},"è":{"ha":833,"x_min":56,"x_max":778,"o":"m 56 0 m 354 576 q 299 521 299 576 l 299 444 l 535 444 l 535 521 q 479 576 535 576 l 354 576 m 750 14 q 264 -14 482 -14 q 113 43 169 -14 q 56 194 56 100 l 56 528 q 115 691 56 632 q 278 750 174 750 l 556 750 q 719 691 660 750 q 778 528 778 632 l 778 271 l 299 271 l 299 215 q 313 181 299 194 q 347 167 326 167 q 750 188 485 167 l 750 14 m 354 792 l 201 1028 l 438 1028 l 521 792 l 354 792 z "},"é":{"ha":833,"x_min":56,"x_max":778,"o":"m 56 0 m 354 576 q 299 521 299 576 l 299 444 l 535 444 l 535 521 q 479 576 535 576 l 354 576 m 750 14 q 264 -14 482 -14 q 113 43 169 -14 q 56 194 56 100 l 56 528 q 115 691 56 632 q 278 750 174 750 l 556 750 q 719 691 660 750 q 778 528 778 632 l 778 271 l 299 271 l 299 215 q 313 181 299 194 q 347 167 326 167 q 750 188 485 167 l 750 14 m 306 793 l 389 1029 l 639 1029 l 486 793 l 306 793 z "},"ê":{"ha":833,"x_min":56,"x_max":778,"o":"m 56 0 m 354 576 q 299 521 299 576 l 299 444 l 535 444 l 535 521 q 479 576 535 576 l 354 576 m 750 14 q 264 -14 482 -14 q 113 43 169 -14 q 56 194 56 100 l 56 528 q 115 691 56 632 q 278 750 174 750 l 556 750 q 719 691 660 750 q 778 528 778 632 l 778 271 l 299 271 l 299 215 q 313 181 299 194 q 347 167 326 167 q 750 188 485 167 l 750 14 m 153 793 l 319 1029 l 514 1029 l 681 793 l 507 793 l 417 904 l 326 793 l 153 793 z "},"ë":{"ha":833,"x_min":56,"x_max":778,"o":"m 56 0 m 354 576 q 299 521 299 576 l 299 444 l 535 444 l 535 521 q 479 576 535 576 l 354 576 m 750 14 q 264 -14 482 -14 q 113 43 169 -14 q 56 194 56 100 l 56 528 q 115 691 56 632 q 278 750 174 750 l 556 750 q 719 691 660 750 q 778 528 778 632 l 778 271 l 299 271 l 299 215 q 313 181 299 194 q 347 167 326 167 q 750 188 485 167 l 750 14 m 458 986 l 694 986 l 694 792 l 458 792 l 458 986 m 139 986 l 375 986 l 375 792 l 139 792 l 139 986 z "},"ì":{"ha":444,"x_min":28,"x_max":375,"o":"m 375 736 l 375 0 l 132 0 l 132 549 l 28 549 l 28 736 l 375 736 m 186 792 l 33 1028 l 269 1028 l 353 792 l 186 792 z "},"í":{"ha":444,"x_min":28,"x_max":472,"o":"m 375 736 l 375 0 l 132 0 l 132 549 l 28 549 l 28 736 l 375 736 m 139 793 l 222 1029 l 472 1029 l 319 793 l 139 793 z "},"î":{"ha":444,"x_min":-35,"x_max":493,"o":"m 375 736 l 375 0 l 132 0 l 132 549 l 28 549 l 28 736 l 375 736 m -35 790 l 132 1026 l 326 1026 l 493 790 l 319 790 l 229 901 l 139 790 l -35 790 z "},"ï":{"ha":444,"x_min":-56,"x_max":500,"o":"m 375 736 l 375 0 l 132 0 l 132 549 l 28 549 l 28 736 l 375 736 m 264 986 l 500 986 l 500 792 l 264 792 l 264 986 m -56 986 l 181 986 l 181 792 l -56 792 l -56 986 z "},"ð":{"ha":847,"x_min":56,"x_max":806,"o":"m 326 611 q 563 583 428 611 l 563 674 q 538 732 563 710 q 472 758 514 754 l 417 764 l 410 688 l 250 701 l 257 781 l 146 792 l 167 986 l 276 976 l 285 1063 l 444 1049 l 436 961 l 528 951 q 729 861 654 938 q 806 674 806 782 l 806 208 q 747 45 806 104 q 583 -14 688 -14 l 278 -14 q 115 45 174 -14 q 56 208 56 104 l 56 403 q 113 554 56 497 q 264 611 169 611 l 326 611 m 507 174 q 563 229 563 174 l 563 410 q 511 417 536 413 q 396 424 454 424 l 347 424 q 313 410 326 424 q 299 375 299 396 l 299 229 q 354 174 299 174 l 507 174 z "},"ñ":{"ha":875,"x_min":69,"x_max":819,"o":"m 69 0 m 479 549 q 313 521 406 549 l 313 0 l 69 0 l 69 736 l 285 736 l 299 667 q 433 730 364 710 q 549 750 501 750 l 611 750 q 763 693 706 750 q 819 542 819 636 l 819 0 l 576 0 l 576 500 q 563 535 576 521 q 528 549 549 549 l 479 549 m 521 967 q 590 1022 565 967 l 681 967 q 647 889 668 922 q 521 807 599 807 q 470 818 492 807 q 430 842 449 829 q 393 865 411 854 q 354 876 375 876 q 285 821 310 876 l 194 876 q 276 1011 217 963 q 345 1036 307 1036 q 405 1025 383 1036 q 445 1001 426 1014 q 482 978 464 989 q 521 967 500 967 z "},"ò":{"ha":875,"x_min":56,"x_max":819,"o":"m 56 0 m 819 208 q 760 45 819 104 q 597 -14 701 -14 l 278 -14 q 115 45 174 -14 q 56 208 56 104 l 56 528 q 115 691 56 632 q 278 750 174 750 l 597 750 q 760 691 701 750 q 819 528 819 632 l 819 208 m 576 507 q 521 563 576 563 l 354 563 q 299 507 299 563 l 299 229 q 354 174 299 174 l 521 174 q 576 229 576 174 l 576 507 m 361 792 l 208 1028 l 444 1028 l 528 792 l 361 792 z "},"ó":{"ha":875,"x_min":56,"x_max":819,"o":"m 56 0 m 819 208 q 760 45 819 104 q 597 -14 701 -14 l 278 -14 q 115 45 174 -14 q 56 208 56 104 l 56 528 q 115 691 56 632 q 278 750 174 750 l 597 750 q 760 691 701 750 q 819 528 819 632 l 819 208 m 576 507 q 521 563 576 563 l 354 563 q 299 507 299 563 l 299 229 q 354 174 299 174 l 521 174 q 576 229 576 174 l 576 507 m 340 792 l 424 1028 l 674 1028 l 521 792 l 340 792 z "},"ô":{"ha":875,"x_min":56,"x_max":819,"o":"m 56 0 m 819 208 q 760 45 819 104 q 597 -14 701 -14 l 278 -14 q 115 45 174 -14 q 56 208 56 104 l 56 528 q 115 691 56 632 q 278 750 174 750 l 597 750 q 760 691 701 750 q 819 528 819 632 l 819 208 m 576 507 q 521 563 576 563 l 354 563 q 299 507 299 563 l 299 229 q 354 174 299 174 l 521 174 q 576 229 576 174 l 576 507 m 174 793 l 340 1029 l 535 1029 l 701 793 l 528 793 l 438 904 l 347 793 l 174 793 z "},"õ":{"ha":875,"x_min":56,"x_max":819,"o":"m 56 0 m 819 208 q 760 45 819 104 q 597 -14 701 -14 l 278 -14 q 115 45 174 -14 q 56 208 56 104 l 56 528 q 115 691 56 632 q 278 750 174 750 l 597 750 q 760 691 701 750 q 819 528 819 632 l 819 208 m 576 507 q 521 563 576 563 l 354 563 q 299 507 299 563 l 299 229 q 354 174 299 174 l 521 174 q 576 229 576 174 l 576 507 m 521 953 q 590 1008 565 953 l 681 953 q 647 875 668 908 q 521 793 599 793 q 470 804 492 793 q 430 828 449 815 q 393 851 411 840 q 354 863 375 863 q 285 807 310 863 l 194 863 q 276 997 217 949 q 345 1022 307 1022 q 405 1011 383 1022 q 445 988 426 1000 q 482 964 464 975 q 521 953 500 953 z "},"ö":{"ha":875,"x_min":56,"x_max":819,"o":"m 56 0 m 819 208 q 760 45 819 104 q 597 -14 701 -14 l 278 -14 q 115 45 174 -14 q 56 208 56 104 l 56 528 q 115 691 56 632 q 278 750 174 750 l 597 750 q 760 691 701 750 q 819 528 819 632 l 819 208 m 576 507 q 521 563 576 563 l 354 563 q 299 507 299 563 l 299 229 q 354 174 299 174 l 521 174 q 576 229 576 174 l 576 507 m 479 1014 l 715 1014 l 715 819 l 479 819 l 479 1014 m 160 1014 l 396 1014 l 396 819 l 160 819 l 160 1014 z "},"÷":{"ha":750,"x_min":42,"x_max":708,"o":"m 708 583 l 708 389 l 42 389 l 42 583 l 708 583 m 264 319 l 486 319 l 486 125 l 264 125 l 264 319 m 264 847 l 486 847 l 486 653 l 264 653 l 264 847 z "},"ø":{"ha":875,"x_min":21,"x_max":854,"o":"m 806 615 q 819 528 819 576 l 819 208 q 760 45 819 104 q 597 -14 701 -14 l 278 -14 q 147 18 200 -14 l 104 -21 l 21 76 l 69 119 q 56 208 56 157 l 56 528 q 115 691 56 632 q 278 750 174 750 l 597 750 q 726 717 674 750 l 771 757 l 854 660 l 806 615 m 576 407 l 326 181 q 354 174 340 174 l 521 174 q 576 229 576 174 l 576 407 m 299 328 l 549 556 q 521 563 535 563 l 354 563 q 299 507 299 563 l 299 328 z "},"ù":{"ha":889,"x_min":69,"x_max":819,"o":"m 69 0 m 410 188 q 576 215 483 188 l 576 736 l 819 736 l 819 0 l 604 0 l 590 69 q 456 6 525 26 q 340 -14 388 -14 l 278 -14 q 126 43 183 -14 q 69 194 69 100 l 69 736 l 313 736 l 313 236 q 326 201 313 215 q 361 188 340 188 l 410 188 m 382 778 l 229 1014 l 465 1014 l 549 778 l 382 778 z "},"ú":{"ha":889,"x_min":69,"x_max":819,"o":"m 69 0 m 410 188 q 576 215 483 188 l 576 736 l 819 736 l 819 0 l 604 0 l 590 69 q 456 6 525 26 q 340 -14 388 -14 l 278 -14 q 126 43 183 -14 q 69 194 69 100 l 69 736 l 313 736 l 313 236 q 326 201 313 215 q 361 188 340 188 l 410 188 m 333 778 l 417 1014 l 667 1014 l 514 778 l 333 778 z "},"û":{"ha":889,"x_min":69,"x_max":819,"o":"m 69 0 m 410 188 q 576 215 483 188 l 576 736 l 819 736 l 819 0 l 604 0 l 590 69 q 456 6 525 26 q 340 -14 388 -14 l 278 -14 q 126 43 183 -14 q 69 194 69 100 l 69 736 l 313 736 l 313 236 q 326 201 313 215 q 361 188 340 188 l 410 188 m 181 792 l 347 1028 l 542 1028 l 708 792 l 535 792 l 444 903 l 354 792 l 181 792 z "},"ü":{"ha":889,"x_min":69,"x_max":819,"o":"m 69 0 m 410 188 q 576 215 483 188 l 576 736 l 819 736 l 819 0 l 604 0 l 590 69 q 456 6 525 26 q 340 -14 388 -14 l 278 -14 q 126 43 183 -14 q 69 194 69 100 l 69 736 l 313 736 l 313 236 q 326 201 313 215 q 361 188 340 188 l 410 188 m 486 986 l 722 986 l 722 792 l 486 792 l 486 986 m 167 986 l 403 986 l 403 792 l 167 792 l 167 986 z "},"ý":{"ha":792,"x_min":-14,"x_max":819,"o":"m 0 0 m 264 -250 q 83 -236 190 -250 l 83 -56 l 208 -56 q 277 -26 261 -56 q 271 56 293 3 l -14 736 l 243 736 l 417 264 l 563 736 l 819 736 l 542 -28 q 438 -194 501 -137 q 264 -250 374 -250 m 299 778 l 382 1014 l 632 1014 l 479 778 l 299 778 z "},"þ":{"ha":875,"x_min":69,"x_max":819,"o":"m 597 736 q 760 677 701 736 q 819 514 819 618 l 819 222 q 760 59 819 118 q 597 0 701 0 l 313 0 l 313 -236 l 69 -236 l 69 972 l 313 972 l 313 736 l 597 736 m 576 493 q 521 549 576 549 l 313 549 l 313 188 l 521 188 q 576 243 576 188 l 576 493 z "},"ÿ":{"ha":792,"x_min":-14,"x_max":819,"o":"m 0 0 m 264 -250 q 83 -236 190 -250 l 83 -56 l 208 -56 q 277 -26 261 -56 q 271 56 293 3 l -14 736 l 243 736 l 417 264 l 563 736 l 819 736 l 542 -28 q 438 -194 501 -137 q 264 -250 374 -250 m 438 1014 l 674 1014 l 674 819 l 438 819 l 438 1014 m 118 1014 l 354 1014 l 354 819 l 118 819 l 118 1014 z "},"Ā":{"ha":986,"x_min":-14,"x_max":1000,"o":"m 0 0 m 257 0 l -14 0 l 354 972 l 632 972 l 1000 0 l 729 0 l 667 174 l 319 174 l 257 0 m 382 354 l 604 354 l 493 681 l 382 354 m 285 1224 l 701 1224 l 701 1057 l 285 1057 l 285 1224 z "},"ā":{"ha":826,"x_min":35,"x_max":771,"o":"m 35 0 m 361 181 q 528 208 435 181 l 528 292 l 326 292 q 292 278 306 292 q 278 243 278 264 l 278 229 q 292 194 278 208 q 326 181 306 181 l 361 181 m 104 722 q 563 750 358 750 q 714 693 657 750 q 771 542 771 636 l 771 0 l 556 0 l 542 69 q 408 6 476 26 q 292 -14 339 -14 l 243 -14 q 92 43 149 -14 q 35 194 35 100 l 35 257 q 92 408 35 351 q 243 465 149 465 l 528 465 l 528 521 q 514 556 528 542 q 479 569 500 569 q 280 561 389 569 q 104 549 171 553 l 104 722 m 232 988 l 649 988 l 649 821 l 232 821 l 232 988 z "},"Ă":{"ha":986,"x_min":-14,"x_max":1000,"o":"m 0 0 m 257 0 l -14 0 l 354 972 l 632 972 l 1000 0 l 729 0 l 667 174 l 319 174 l 257 0 m 382 354 l 604 354 l 493 681 l 382 354 m 424 1043 q 243 1224 243 1043 l 243 1265 l 424 1265 l 424 1231 q 438 1196 424 1210 q 472 1182 451 1182 l 514 1182 q 549 1196 535 1182 q 563 1231 563 1210 l 563 1265 l 743 1265 l 743 1224 q 563 1043 743 1043 l 424 1043 z "},"ă":{"ha":826,"x_min":35,"x_max":771,"o":"m 361 806 q 181 986 181 806 l 181 1028 l 361 1028 l 361 993 q 375 958 361 972 q 410 944 389 944 l 451 944 q 486 958 472 944 q 500 993 500 972 l 500 1028 l 681 1028 l 681 986 q 500 806 681 806 l 361 806 m 361 181 q 528 208 435 181 l 528 292 l 326 292 q 292 278 306 292 q 278 243 278 264 l 278 229 q 292 194 278 208 q 326 181 306 181 l 361 181 m 104 722 q 563 750 358 750 q 714 693 657 750 q 771 542 771 636 l 771 0 l 556 0 l 542 69 q 408 6 476 26 q 292 -14 339 -14 l 243 -14 q 92 43 149 -14 q 35 194 35 100 l 35 257 q 92 408 35 351 q 243 465 149 465 l 528 465 l 528 521 q 514 556 528 542 q 479 569 500 569 q 280 561 389 569 q 104 549 171 553 l 104 722 z "},"Ą":{"ha":986,"x_min":-14,"x_max":1000,"o":"m 0 0 m 257 0 l -14 0 l 354 972 l 632 972 l 1000 0 l 729 0 l 667 174 l 319 174 l 257 0 m 382 354 l 604 354 l 493 681 l 382 354 m 986 -264 q 847 -278 921 -278 q 738 -245 774 -278 q 701 -164 701 -212 q 781 -36 701 -86 q 861 0 817 -14 l 1000 0 q 860 -83 910 -35 q 833 -140 833 -107 q 880 -174 833 -174 q 986 -160 926 -174 l 986 -264 z "},"ą":{"ha":826,"x_min":35,"x_max":771,"o":"m 35 0 m 361 181 q 528 208 435 181 l 528 292 l 326 292 q 292 278 306 292 q 278 243 278 264 l 278 229 q 292 194 278 208 q 326 181 306 181 l 361 181 m 104 722 q 563 750 358 750 q 714 693 657 750 q 771 542 771 636 l 771 0 l 556 0 l 542 69 q 408 6 476 26 q 292 -14 339 -14 l 243 -14 q 92 43 149 -14 q 35 194 35 100 l 35 257 q 92 408 35 351 q 243 465 149 465 l 528 465 l 528 521 q 514 556 528 542 q 479 569 500 569 q 280 561 389 569 q 104 549 171 553 l 104 722 m 757 -264 q 618 -278 692 -278 q 508 -245 544 -278 q 472 -164 472 -212 q 551 -36 472 -86 q 632 0 588 -14 l 771 0 q 631 -83 681 -35 q 604 -140 604 -107 q 651 -174 604 -174 q 757 -160 697 -174 l 757 -264 z "},"Ć":{"ha":861,"x_min":56,"x_max":833,"o":"m 56 0 m 833 14 q 319 -14 524 -14 q 119 50 183 -14 q 56 250 56 114 l 56 694 q 122 906 56 840 q 333 972 188 972 l 833 972 l 833 778 l 389 778 q 306 694 306 778 l 306 250 q 324 199 306 218 q 372 181 343 181 q 436 181 401 181 q 508 183 471 182 q 584 186 546 185 q 683 192 622 188 q 833 201 743 196 l 833 14 m 347 1015 l 431 1251 l 681 1251 l 528 1015 l 347 1015 z "},"ć":{"ha":764,"x_min":56,"x_max":722,"o":"m 56 0 m 722 14 q 264 -14 463 -14 q 113 43 169 -14 q 56 194 56 100 l 56 514 q 115 677 56 618 q 278 736 174 736 l 722 736 l 722 549 l 354 549 q 299 493 299 549 l 299 222 q 313 188 299 201 q 347 174 326 174 q 722 194 472 174 l 722 14 m 299 792 l 382 1028 l 632 1028 l 479 792 l 299 792 z "},"Č":{"ha":861,"x_min":56,"x_max":833,"o":"m 56 0 m 833 14 q 319 -14 524 -14 q 119 50 183 -14 q 56 250 56 114 l 56 694 q 122 906 56 840 q 333 972 188 972 l 833 972 l 833 778 l 389 778 q 306 694 306 778 l 306 250 q 324 199 306 218 q 372 181 343 181 q 436 181 401 181 q 508 183 471 182 q 584 186 546 185 q 683 192 622 188 q 833 201 743 196 l 833 14 m 382 1251 l 472 1140 l 563 1251 l 736 1251 l 569 1015 l 375 1015 l 208 1251 l 382 1251 z "},"č":{"ha":764,"x_min":56,"x_max":722,"o":"m 56 0 m 722 14 q 264 -14 463 -14 q 113 43 169 -14 q 56 194 56 100 l 56 514 q 115 677 56 618 q 278 736 174 736 l 722 736 l 722 549 l 354 549 q 299 493 299 549 l 299 222 q 313 188 299 201 q 347 174 326 174 q 722 194 472 174 l 722 14 m 319 1028 l 410 917 l 500 1028 l 674 1028 l 507 792 l 313 792 l 146 1028 l 319 1028 z "},"Ď":{"ha":1000,"x_min":83,"x_max":944,"o":"m 83 0 m 625 972 q 863 891 782 972 q 944 653 944 810 l 944 319 q 863 81 944 163 q 625 0 782 0 l 83 0 l 83 972 l 625 972 m 694 653 q 569 778 694 778 l 333 778 l 333 194 l 569 194 q 694 319 694 194 l 694 653 m 382 1251 l 472 1140 l 563 1251 l 736 1251 l 569 1015 l 375 1015 l 208 1251 l 382 1251 z "},"ď":{"ha":1139,"x_min":56,"x_max":1111,"o":"m 875 972 l 1111 972 l 1111 792 l 1014 639 l 903 639 l 958 778 l 875 778 l 875 972 m 590 0 l 576 69 q 442 6 511 26 q 326 -14 374 -14 l 264 -14 q 113 43 169 -14 q 56 194 56 100 l 56 514 q 115 677 56 618 q 278 736 174 736 l 563 736 l 563 972 l 806 972 l 806 0 l 590 0 m 396 188 q 563 215 469 188 l 563 549 l 354 549 q 299 493 299 549 l 299 236 q 313 201 299 215 q 347 188 326 188 l 396 188 z "},"Đ":{"ha":1028,"x_min":28,"x_max":972,"o":"m 111 583 l 111 972 l 653 972 q 891 891 810 972 q 972 653 972 810 l 972 319 q 891 81 972 163 q 653 0 810 0 l 111 0 l 111 396 l 28 396 l 28 583 l 111 583 m 722 653 q 597 778 722 778 l 361 778 l 361 583 l 528 583 l 528 396 l 361 396 l 361 194 l 597 194 q 722 319 722 194 l 722 653 z "},"đ":{"ha":917,"x_min":56,"x_max":889,"o":"m 590 0 l 576 69 q 442 6 511 26 q 326 -14 374 -14 l 264 -14 q 113 43 169 -14 q 56 194 56 100 l 56 403 q 115 566 56 507 q 278 625 174 625 l 563 625 l 563 688 l 389 688 l 389 861 l 563 861 l 563 972 l 778 972 l 806 861 l 889 861 l 889 688 l 806 688 l 806 0 l 590 0 m 396 188 q 563 215 469 188 l 563 438 l 354 438 q 299 382 299 438 l 299 236 q 313 201 299 215 q 347 188 326 188 l 396 188 z "},"Ē":{"ha":882,"x_min":83,"x_max":854,"o":"m 83 0 m 854 0 l 83 0 l 83 972 l 854 972 l 854 778 l 333 778 l 333 590 l 743 590 l 743 396 l 333 396 l 333 194 l 854 194 l 854 0 m 232 1224 l 649 1224 l 649 1057 l 232 1057 l 232 1224 z "},"ē":{"ha":833,"x_min":56,"x_max":778,"o":"m 56 0 m 354 576 q 299 521 299 576 l 299 444 l 535 444 l 535 521 q 479 576 535 576 l 354 576 m 750 14 q 264 -14 482 -14 q 113 43 169 -14 q 56 194 56 100 l 56 528 q 115 691 56 632 q 278 750 174 750 l 556 750 q 719 691 660 750 q 778 528 778 632 l 778 271 l 299 271 l 299 215 q 313 181 299 194 q 347 167 326 167 q 750 188 485 167 l 750 14 m 208 988 l 625 988 l 625 821 l 208 821 l 208 988 z "},"Ė":{"ha":882,"x_min":83,"x_max":854,"o":"m 83 0 m 854 0 l 83 0 l 83 972 l 854 972 l 854 778 l 333 778 l 333 590 l 743 590 l 743 396 l 333 396 l 333 194 l 854 194 l 854 0 m 322 1251 l 558 1251 l 558 1057 l 322 1057 l 322 1251 z "},"ė":{"ha":833,"x_min":56,"x_max":778,"o":"m 56 0 m 354 576 q 299 521 299 576 l 299 444 l 535 444 l 535 521 q 479 576 535 576 l 354 576 m 750 14 q 264 -14 482 -14 q 113 43 169 -14 q 56 194 56 100 l 56 528 q 115 691 56 632 q 278 750 174 750 l 556 750 q 719 691 660 750 q 778 528 778 632 l 778 271 l 299 271 l 299 215 q 313 181 299 194 q 347 167 326 167 q 750 188 485 167 l 750 14 m 299 1014 l 535 1014 l 535 819 l 299 819 l 299 1014 z "},"Ę":{"ha":882,"x_min":83,"x_max":854,"o":"m 83 0 m 854 0 l 83 0 l 83 972 l 854 972 l 854 778 l 333 778 l 333 590 l 743 590 l 743 396 l 333 396 l 333 194 l 854 194 l 854 0 m 840 -264 q 701 -278 775 -278 q 592 -245 628 -278 q 556 -164 556 -212 q 635 -36 556 -86 q 715 0 671 -14 l 854 0 q 714 -83 764 -35 q 688 -140 688 -107 q 734 -174 688 -174 q 840 -160 781 -174 l 840 -264 z "},"ę":{"ha":833,"x_min":56,"x_max":778,"o":"m 736 -264 q 597 -278 671 -278 q 488 -245 524 -278 q 451 -165 451 -212 q 474 -88 451 -118 q 525 -39 496 -58 q 608 0 569 -10 q 568 -2 604 0 q 481 -7 532 -4 q 262 -14 354 -14 q 113 43 169 -14 q 56 194 56 100 l 56 528 q 115 691 56 632 q 278 750 174 750 l 556 750 q 719 691 660 750 q 778 528 778 632 l 778 271 l 299 271 l 299 215 q 313 181 299 194 q 347 167 326 167 q 750 188 485 167 l 750 14 q 583 -139 583 -75 q 630 -174 583 -174 q 736 -160 676 -174 l 736 -264 m 354 576 q 299 521 299 576 l 299 444 l 535 444 l 535 521 q 479 576 535 576 l 354 576 z "},"Ě":{"ha":882,"x_min":83,"x_max":854,"o":"m 83 0 m 854 0 l 83 0 l 83 972 l 854 972 l 854 778 l 333 778 l 333 590 l 743 590 l 743 396 l 333 396 l 333 194 l 854 194 l 854 0 m 392 1251 l 482 1140 l 572 1251 l 746 1251 l 579 1015 l 385 1015 l 218 1251 l 392 1251 z "},"ě":{"ha":833,"x_min":56,"x_max":778,"o":"m 56 0 m 354 576 q 299 521 299 576 l 299 444 l 535 444 l 535 521 q 479 576 535 576 l 354 576 m 750 14 q 264 -14 482 -14 q 113 43 169 -14 q 56 194 56 100 l 56 528 q 115 691 56 632 q 278 750 174 750 l 556 750 q 719 691 660 750 q 778 528 778 632 l 778 271 l 299 271 l 299 215 q 313 181 299 194 q 347 167 326 167 q 750 188 485 167 l 750 14 m 326 1028 l 417 917 l 507 1028 l 681 1028 l 514 792 l 319 792 l 153 1028 l 326 1028 z "},"Ğ":{"ha":972,"x_min":56,"x_max":917,"o":"m 56 0 m 917 21 q 319 -14 592 -14 q 119 50 183 -14 q 56 250 56 114 l 56 694 q 122 906 56 840 q 333 972 188 972 l 833 972 l 833 778 l 389 778 q 306 694 306 778 l 306 250 q 324 199 306 218 q 375 181 343 181 q 667 188 535 181 l 667 389 l 486 389 l 486 556 l 917 556 l 917 21 m 417 1028 q 236 1208 236 1028 l 236 1250 l 417 1250 l 417 1215 q 431 1181 417 1194 q 465 1167 444 1167 l 507 1167 q 542 1181 528 1167 q 556 1215 556 1194 l 556 1250 l 736 1250 l 736 1208 q 556 1028 736 1028 l 417 1028 z "},"ğ":{"ha":861,"x_min":56,"x_max":792,"o":"m 375 792 q 194 972 194 792 l 194 1014 l 375 1014 l 375 979 q 389 944 375 958 q 424 931 403 931 l 465 931 q 500 944 486 931 q 514 979 514 958 l 514 1014 l 694 1014 l 694 972 q 514 792 694 792 l 375 792 m 549 56 q 313 28 414 28 l 264 28 q 113 85 169 28 q 56 236 56 142 l 56 514 q 115 677 56 618 q 278 736 174 736 l 792 736 l 792 -42 q 735 -193 792 -136 q 583 -250 678 -250 q 97 -222 365 -250 l 97 -42 q 500 -62 363 -62 q 535 -49 521 -62 q 549 -14 549 -35 l 549 56 m 382 215 q 549 229 469 215 l 549 549 l 354 549 q 299 493 299 549 l 299 264 q 313 229 299 243 q 347 215 326 215 l 382 215 z "},"Ģ":{"ha":972,"x_min":56,"x_max":917,"o":"m 56 0 m 917 21 q 319 -14 592 -14 q 119 50 183 -14 q 56 250 56 114 l 56 694 q 122 906 56 840 q 333 972 188 972 l 833 972 l 833 778 l 389 778 q 306 694 306 778 l 306 250 q 324 199 306 218 q 375 181 343 181 q 667 188 535 181 l 667 389 l 486 389 l 486 556 l 917 556 l 917 21 m 368 -54 l 604 -54 l 604 -235 l 507 -387 l 396 -387 l 451 -249 l 368 -249 l 368 -54 z "},"ģ":{"ha":861,"x_min":56,"x_max":792,"o":"m 556 806 l 319 806 l 319 986 l 417 1139 l 528 1139 l 472 1000 l 556 1000 l 556 806 m 549 56 q 313 28 414 28 l 264 28 q 113 85 169 28 q 56 236 56 142 l 56 514 q 115 677 56 618 q 278 736 174 736 l 792 736 l 792 -42 q 735 -193 792 -136 q 583 -250 678 -250 q 97 -222 365 -250 l 97 -42 q 500 -62 363 -62 q 535 -49 521 -62 q 549 -14 549 -35 l 549 56 m 382 215 q 549 229 469 215 l 549 549 l 354 549 q 299 493 299 549 l 299 264 q 313 229 299 243 q 347 215 326 215 l 382 215 z "},"ħ":{"ha":917,"x_min":28,"x_max":861,"o":"m 354 597 q 590 625 489 625 l 653 625 q 804 568 747 625 q 861 417 861 511 l 861 0 l 618 0 l 618 389 q 604 424 618 410 q 569 438 590 438 l 521 438 q 424 432 467 438 q 354 424 381 426 l 354 0 l 111 0 l 111 688 l 28 688 l 28 861 l 111 861 l 139 972 l 354 972 l 354 861 l 528 861 l 528 688 l 354 688 l 354 597 z "},"Ĩ":{"ha":583,"x_min":42,"x_max":542,"o":"m 42 0 m 542 0 l 42 0 l 42 194 l 167 194 l 167 778 l 42 778 l 42 972 l 542 972 l 542 778 l 417 778 l 417 194 l 542 194 l 542 0 m 375 1196 q 444 1251 419 1196 l 535 1196 q 501 1118 522 1151 q 375 1036 453 1036 q 324 1047 346 1036 q 284 1071 303 1058 q 247 1094 265 1083 q 208 1106 229 1106 q 139 1050 164 1106 l 49 1106 q 131 1240 71 1192 q 199 1265 161 1265 q 259 1254 238 1265 q 299 1231 281 1243 q 336 1207 318 1218 q 375 1196 354 1196 z "},"ĩ":{"ha":444,"x_min":-21,"x_max":465,"o":"m 375 736 l 375 0 l 132 0 l 132 549 l 28 549 l 28 736 l 375 736 m 306 965 q 375 1021 350 965 l 465 965 q 433 888 453 921 q 306 806 383 806 q 255 817 276 806 q 215 840 233 828 q 178 864 196 853 q 139 875 160 875 q 69 819 94 875 l -21 875 q 61 1010 1 961 q 130 1035 92 1035 q 190 1024 168 1035 q 230 1000 211 1013 q 267 976 249 988 q 306 965 285 965 z "},"Ī":{"ha":583,"x_min":42,"x_max":542,"o":"m 42 0 m 542 0 l 42 0 l 42 194 l 167 194 l 167 778 l 42 778 l 42 972 l 542 972 l 542 778 l 417 778 l 417 194 l 542 194 l 542 0 m 83 1224 l 500 1224 l 500 1057 l 83 1057 l 83 1224 z "},"ī":{"ha":444,"x_min":14,"x_max":431,"o":"m 375 708 l 375 0 l 132 0 l 132 521 l 28 521 l 28 708 l 375 708 m 14 972 l 431 972 l 431 806 l 14 806 l 14 972 z "},"Į":{"ha":583,"x_min":42,"x_max":542,"o":"m 42 0 m 542 0 l 42 0 l 42 194 l 167 194 l 167 778 l 42 778 l 42 972 l 542 972 l 542 778 l 417 778 l 417 194 l 542 194 l 542 0 m 403 -264 q 264 -278 338 -278 q 154 -245 190 -278 q 118 -164 118 -212 q 197 -36 118 -86 q 278 0 233 -14 l 417 0 q 276 -83 326 -35 q 250 -140 250 -107 q 297 -174 250 -174 q 403 -160 343 -174 l 403 -264 z "},"į":{"ha":444,"x_min":28,"x_max":375,"o":"m 28 0 m 375 708 l 375 0 l 132 0 l 132 521 l 28 521 l 28 708 l 375 708 m 132 986 l 375 986 l 375 792 l 132 792 l 132 986 m 357 -264 q 218 -278 292 -278 q 108 -245 144 -278 q 72 -164 72 -212 q 151 -36 72 -86 q 232 0 188 -14 l 371 0 q 231 -83 281 -35 q 204 -140 204 -107 q 251 -174 204 -174 q 357 -160 297 -174 l 357 -264 z "},"İ":{"ha":583,"x_min":42,"x_max":542,"o":"m 42 0 m 542 0 l 42 0 l 42 194 l 167 194 l 167 778 l 42 778 l 42 972 l 542 972 l 542 778 l 417 778 l 417 194 l 542 194 l 542 0 m 174 1250 l 410 1250 l 410 1056 l 174 1056 l 174 1250 z "},"ı":{"ha":444,"x_min":28,"x_max":375,"o":"m 375 736 l 375 0 l 132 0 l 132 549 l 28 549 l 28 736 l 375 736 z "},"ĳ":{"ha":847,"x_min":28,"x_max":764,"o":"m 556 -250 q 292 -236 426 -250 l 292 -56 l 472 -56 q 507 -42 493 -56 q 521 -7 521 -28 l 521 535 l 375 535 l 375 0 l 132 0 l 132 535 l 28 535 l 28 722 l 764 722 l 764 -42 q 707 -193 764 -136 q 556 -250 650 -250 m 521 986 l 764 986 l 764 792 l 521 792 l 521 986 m 132 986 l 375 986 l 375 792 l 132 792 l 132 986 z "},"Ĵ":{"ha":639,"x_min":14,"x_max":611,"o":"m 14 0 m 556 250 q 492 50 556 114 q 295 -14 428 -14 q 14 0 163 -14 l 14 188 q 236 181 122 181 q 287 199 268 181 q 306 250 306 218 l 306 778 l 125 778 l 125 972 l 556 972 l 556 250 m 83 1015 l 250 1251 l 444 1251 l 611 1015 l 438 1015 l 347 1126 l 257 1015 l 83 1015 z "},"ĵ":{"ha":417,"x_min":-125,"x_max":486,"o":"m 139 -250 q -125 -236 10 -250 l -125 -56 l 56 -56 q 90 -42 76 -56 q 104 -7 104 -28 l 104 736 l 347 736 l 347 -42 q 290 -193 347 -136 q 139 -250 233 -250 m -42 792 l 125 1028 l 319 1028 l 486 792 l 313 792 l 222 903 l 132 792 l -42 792 z "},"Ķ":{"ha":939,"x_min":83,"x_max":939,"o":"m 83 0 m 333 0 l 83 0 l 83 972 l 333 972 l 333 590 l 458 590 l 675 972 l 939 972 l 667 493 l 938 0 l 674 0 l 458 396 l 333 396 l 333 0 m 351 -42 l 588 -42 l 588 -222 l 490 -375 l 379 -375 l 435 -236 l 351 -236 l 351 -42 z "},"ķ":{"ha":833,"x_min":69,"x_max":833,"o":"m 69 0 m 313 292 l 313 0 l 69 0 l 69 972 l 313 972 l 313 479 l 424 479 l 576 736 l 833 736 l 625 382 l 833 0 l 576 0 l 417 292 l 313 292 m 299 -42 l 535 -42 l 535 -222 l 438 -375 l 326 -375 l 382 -236 l 299 -236 l 299 -42 z "},"ĸ":{"ha":833,"x_min":69,"x_max":833,"o":"m 417 278 l 313 278 l 313 0 l 69 0 l 69 736 l 313 736 l 313 465 l 424 465 l 500 618 q 631 739 542 707 q 692 750 663 750 q 778 743 739 750 l 813 736 l 813 549 l 764 549 q 694 507 717 549 l 625 368 l 833 0 l 569 0 l 417 278 z "},"Ĺ":{"ha":854,"x_min":83,"x_max":840,"o":"m 83 0 m 333 194 l 840 194 l 840 0 l 83 0 l 83 972 l 333 972 l 333 194 m 121 1015 l 204 1251 l 454 1251 l 301 1015 l 121 1015 z "},"ĺ":{"ha":472,"x_min":69,"x_max":444,"o":"m 69 0 m 444 0 q 267 -14 351 -14 q 126 43 183 -14 q 69 194 69 100 l 69 972 l 313 972 l 313 229 q 326 194 313 208 q 361 181 340 181 l 444 181 l 444 0 m 97 1013 l 181 1249 l 431 1249 l 278 1013 l 97 1013 z "},"Ļ":{"ha":854,"x_min":83,"x_max":840,"o":"m 83 0 m 333 194 l 840 194 l 840 0 l 83 0 l 83 972 l 333 972 l 333 194 m 308 -42 l 544 -42 l 544 -222 l 447 -375 l 336 -375 l 392 -236 l 308 -236 l 308 -42 z "},"ļ":{"ha":472,"x_min":69,"x_max":444,"o":"m 69 0 m 444 0 q 267 -14 351 -14 q 126 43 183 -14 q 69 194 69 100 l 69 972 l 313 972 l 313 229 q 326 194 313 208 q 361 181 340 181 l 444 181 l 444 0 m 118 -42 l 354 -42 l 354 -222 l 257 -375 l 146 -375 l 201 -236 l 118 -236 l 118 -42 z "},"Ľ":{"ha":854,"x_min":83,"x_max":840,"o":"m 417 972 l 653 972 l 653 792 l 556 639 l 444 639 l 500 778 l 417 778 l 417 972 m 333 194 l 840 194 l 840 0 l 83 0 l 83 972 l 333 972 l 333 194 z "},"ľ":{"ha":646,"x_min":69,"x_max":618,"o":"m 382 972 l 618 972 l 618 792 l 521 639 l 410 639 l 465 778 l 382 778 l 382 972 m 444 0 q 267 -14 351 -14 q 126 43 183 -14 q 69 194 69 100 l 69 972 l 313 972 l 313 229 q 326 194 313 208 q 361 181 340 181 l 444 181 l 444 0 z "},"ŀ":{"ha":681,"x_min":69,"x_max":653,"o":"m 69 0 m 444 0 q 267 -14 351 -14 q 126 43 183 -14 q 69 194 69 100 l 69 972 l 313 972 l 313 229 q 326 194 313 208 q 361 181 340 181 l 444 181 l 444 0 m 403 590 l 653 590 l 653 382 l 403 382 l 403 590 z "},"Ł":{"ha":882,"x_min":28,"x_max":868,"o":"m 111 546 l 111 972 l 361 972 l 361 686 l 486 757 l 486 528 l 361 457 l 361 194 l 868 194 l 868 0 l 111 0 l 111 317 l 28 271 l 28 500 l 111 546 z "},"ł":{"ha":514,"x_min":28,"x_max":486,"o":"m 486 0 q 309 -14 393 -14 q 168 43 225 -14 q 111 194 111 100 l 111 317 l 28 271 l 28 500 l 111 546 l 111 972 l 354 972 l 354 682 l 486 757 l 486 528 l 354 453 l 354 229 q 368 194 354 208 q 403 181 382 181 l 486 181 l 486 0 z "},"Ń":{"ha":1014,"x_min":83,"x_max":931,"o":"m 83 0 m 931 0 l 667 0 l 333 583 l 333 0 l 83 0 l 83 972 l 347 972 l 681 389 l 681 972 l 931 972 l 931 0 m 410 1001 l 493 1238 l 743 1238 l 590 1001 l 410 1001 z "},"ń":{"ha":875,"x_min":69,"x_max":819,"o":"m 69 0 m 479 549 q 313 521 406 549 l 313 0 l 69 0 l 69 736 l 285 736 l 299 667 q 433 730 364 710 q 549 750 501 750 l 611 750 q 763 693 706 750 q 819 542 819 636 l 819 0 l 576 0 l 576 500 q 563 535 576 521 q 528 549 549 549 l 479 549 m 354 792 l 438 1028 l 688 1028 l 535 792 l 354 792 z "},"Ņ":{"ha":1014,"x_min":83,"x_max":931,"o":"m 83 0 m 931 0 l 667 0 l 333 583 l 333 0 l 83 0 l 83 972 l 347 972 l 681 389 l 681 972 l 931 972 l 931 0 m 389 -42 l 625 -42 l 625 -222 l 528 -375 l 417 -375 l 472 -236 l 389 -236 l 389 -42 z "},"ņ":{"ha":875,"x_min":69,"x_max":819,"o":"m 69 0 m 479 549 q 313 521 406 549 l 313 0 l 69 0 l 69 736 l 285 736 l 299 667 q 433 730 364 710 q 549 750 501 750 l 611 750 q 763 693 706 750 q 819 542 819 636 l 819 0 l 576 0 l 576 500 q 563 535 576 521 q 528 549 549 549 l 479 549 m 319 -42 l 556 -42 l 556 -222 l 458 -375 l 347 -375 l 403 -236 l 319 -236 l 319 -42 z "},"Ň":{"ha":1014,"x_min":83,"x_max":931,"o":"m 83 0 m 931 0 l 667 0 l 333 583 l 333 0 l 83 0 l 83 972 l 347 972 l 681 389 l 681 972 l 931 972 l 931 0 m 417 1238 l 507 1126 l 597 1238 l 771 1238 l 604 1001 l 410 1001 l 243 1238 l 417 1238 z "},"ň":{"ha":875,"x_min":69,"x_max":819,"o":"m 69 0 m 479 549 q 313 521 406 549 l 313 0 l 69 0 l 69 736 l 285 736 l 299 667 q 433 730 364 710 q 549 750 501 750 l 611 750 q 763 693 706 750 q 819 542 819 636 l 819 0 l 576 0 l 576 500 q 563 535 576 521 q 528 549 549 549 l 479 549 m 361 1031 l 451 919 l 542 1031 l 715 1031 l 549 794 l 354 794 l 188 1031 l 361 1031 z "},"Ō":{"ha":1014,"x_min":56,"x_max":958,"o":"m 56 0 m 708 708 q 625 792 708 792 l 389 792 q 306 708 306 792 l 306 264 q 389 181 306 181 l 625 181 q 708 264 708 181 l 708 708 m 958 264 q 892 52 958 118 q 681 -14 826 -14 l 333 -14 q 122 52 188 -14 q 56 264 56 118 l 56 708 q 122 920 56 854 q 333 986 188 986 l 681 986 q 892 920 826 986 q 958 708 958 854 l 958 264 m 299 1224 l 715 1224 l 715 1057 l 299 1057 l 299 1224 z "},"ō":{"ha":875,"x_min":56,"x_max":819,"o":"m 56 0 m 819 208 q 760 45 819 104 q 597 -14 701 -14 l 278 -14 q 115 45 174 -14 q 56 208 56 104 l 56 528 q 115 691 56 632 q 278 750 174 750 l 597 750 q 760 691 701 750 q 819 528 819 632 l 819 208 m 576 507 q 521 563 576 563 l 354 563 q 299 507 299 563 l 299 229 q 354 174 299 174 l 521 174 q 576 229 576 174 l 576 507 m 229 986 l 646 986 l 646 819 l 229 819 l 229 986 z "},"Ő":{"ha":1014,"x_min":56,"x_max":958,"o":"m 56 0 m 708 708 q 625 792 708 792 l 389 792 q 306 708 306 792 l 306 264 q 389 181 306 181 l 625 181 q 708 264 708 181 l 708 708 m 958 264 q 892 52 958 118 q 681 -14 826 -14 l 333 -14 q 122 52 188 -14 q 56 264 56 118 l 56 708 q 122 920 56 854 q 333 986 188 986 l 681 986 q 892 920 826 986 q 958 708 958 854 l 958 264 m 542 1029 l 639 1265 l 826 1265 l 688 1029 l 542 1029 m 299 1029 l 396 1265 l 583 1265 l 444 1029 l 299 1029 z "},"ő":{"ha":875,"x_min":56,"x_max":819,"o":"m 56 0 m 819 208 q 760 45 819 104 q 597 -14 701 -14 l 278 -14 q 115 45 174 -14 q 56 208 56 104 l 56 528 q 115 691 56 632 q 278 750 174 750 l 597 750 q 760 691 701 750 q 819 528 819 632 l 819 208 m 576 507 q 521 563 576 563 l 354 563 q 299 507 299 563 l 299 229 q 354 174 299 174 l 521 174 q 576 229 576 174 l 576 507 m 458 792 l 556 1028 l 743 1028 l 604 792 l 458 792 m 215 792 l 313 1028 l 500 1028 l 361 792 l 215 792 z "},"Œ":{"ha":1382,"x_min":56,"x_max":1354,"o":"m 1354 0 l 333 0 q 122 66 188 0 q 56 278 56 132 l 56 694 q 122 906 56 840 q 333 972 188 972 l 1354 972 l 1354 778 l 889 778 l 889 590 l 1243 590 l 1243 396 l 889 396 l 889 194 l 1354 194 l 1354 0 m 639 194 l 639 778 l 389 778 q 306 694 306 778 l 306 278 q 389 194 306 194 l 639 194 z "},"œ":{"ha":1313,"x_min":56,"x_max":1257,"o":"m 1229 14 q 819 -14 1031 -14 q 674 35 722 -14 q 528 -14 619 -14 l 278 -14 q 115 45 174 -14 q 56 208 56 104 l 56 528 q 115 691 56 632 q 278 750 174 750 l 528 750 q 674 701 614 750 q 813 750 733 750 l 1035 750 q 1198 691 1139 750 q 1257 528 1257 632 l 1257 271 l 792 271 l 792 215 q 806 181 792 194 q 840 167 819 167 q 1229 188 979 167 l 1229 14 m 549 507 q 493 563 549 563 l 354 563 q 299 507 299 563 l 299 229 q 354 174 299 174 l 493 174 q 549 229 549 174 l 549 507 m 847 576 q 792 521 792 576 l 792 444 l 1014 444 l 1014 521 q 958 576 1014 576 l 847 576 z "},"Ŕ":{"ha":1000,"x_min":83,"x_max":958,"o":"m 83 0 m 83 972 l 667 972 q 878 906 813 972 q 944 694 944 840 l 944 569 q 906 390 944 454 q 785 306 868 326 l 958 0 l 688 0 l 528 292 l 333 292 l 333 0 l 83 0 l 83 972 m 694 694 q 611 778 694 778 l 333 778 l 333 486 l 611 486 q 694 569 694 486 l 694 694 m 375 1015 l 458 1251 l 708 1251 l 556 1015 l 375 1015 z "},"ŕ":{"ha":639,"x_min":69,"x_max":611,"o":"m 69 0 m 493 535 q 313 493 406 535 l 313 0 l 69 0 l 69 736 l 285 736 l 299 646 q 549 750 418 750 l 611 750 l 611 535 l 493 535 m 215 793 l 299 1029 l 549 1029 l 396 793 l 215 793 z "},"Ŗ":{"ha":1000,"x_min":83,"x_max":958,"o":"m 83 0 m 83 972 l 667 972 q 878 906 813 972 q 944 694 944 840 l 944 569 q 906 390 944 454 q 785 306 868 326 l 958 0 l 688 0 l 528 292 l 333 292 l 333 0 l 83 0 l 83 972 m 694 694 q 611 778 694 778 l 333 778 l 333 486 l 611 486 q 694 569 694 486 l 694 694 m 382 -42 l 618 -42 l 618 -222 l 521 -375 l 410 -375 l 465 -236 l 382 -236 l 382 -42 z "},"ŗ":{"ha":639,"x_min":69,"x_max":611,"o":"m 69 0 m 493 535 q 313 493 406 535 l 313 0 l 69 0 l 69 736 l 285 736 l 299 646 q 549 750 418 750 l 611 750 l 611 535 l 493 535 m 76 -42 l 313 -42 l 313 -222 l 215 -375 l 104 -375 l 160 -236 l 76 -236 l 76 -42 z "},"Ř":{"ha":1000,"x_min":83,"x_max":958,"o":"m 83 0 m 83 972 l 667 972 q 878 906 813 972 q 944 694 944 840 l 944 569 q 906 390 944 454 q 785 306 868 326 l 958 0 l 688 0 l 528 292 l 333 292 l 333 0 l 83 0 l 83 972 m 694 694 q 611 778 694 778 l 333 778 l 333 486 l 611 486 q 694 569 694 486 l 694 694 m 396 1251 l 486 1140 l 576 1251 l 750 1251 l 583 1015 l 389 1015 l 222 1251 l 396 1251 z "},"ř":{"ha":639,"x_min":69,"x_max":611,"o":"m 69 0 m 493 535 q 313 493 406 535 l 313 0 l 69 0 l 69 736 l 285 736 l 299 646 q 549 750 418 750 l 611 750 l 611 535 l 493 535 m 243 1028 l 333 917 l 424 1028 l 597 1028 l 431 792 l 236 792 l 69 1028 l 243 1028 z "},"Ś":{"ha":931,"x_min":42,"x_max":889,"o":"m 42 0 m 54 201 q 569 181 435 181 q 620 199 601 181 q 639 250 639 218 l 639 375 l 319 375 q 108 441 174 375 q 42 653 42 507 l 42 694 q 108 906 42 840 q 319 972 174 972 l 807 972 l 807 778 l 375 778 q 292 694 292 778 l 292 667 q 375 583 292 583 l 625 583 q 825 519 761 583 q 889 319 889 456 l 889 250 q 825 50 889 114 q 625 -14 761 -14 q 475 -11 554 -14 l 347 -6 q 54 14 206 1 l 54 201 m 354 1015 l 438 1251 l 688 1251 l 535 1015 l 354 1015 z "},"ś":{"ha":806,"x_min":28,"x_max":778,"o":"m 28 0 m 42 194 q 486 174 324 174 q 521 188 507 174 q 535 222 535 201 l 535 271 l 236 271 q 85 328 142 271 q 28 479 28 385 l 28 528 q 85 679 28 622 q 236 736 142 736 l 708 736 l 708 556 l 319 556 q 285 542 299 556 q 271 507 271 528 q 285 472 271 486 q 319 458 299 458 l 569 458 q 721 401 664 458 q 778 250 778 344 l 778 194 q 721 43 778 100 q 569 -14 664 -14 q 42 14 324 -14 l 42 194 m 292 793 l 375 1029 l 625 1029 l 472 793 l 292 793 z "},"Ş":{"ha":931,"x_min":42,"x_max":889,"o":"m 42 0 m 54 201 q 569 181 435 181 q 620 199 601 181 q 639 250 639 218 l 639 375 l 319 375 q 108 441 174 375 q 42 653 42 507 l 42 694 q 108 906 42 840 q 319 972 174 972 l 807 972 l 807 778 l 375 778 q 292 694 292 778 l 292 667 q 375 583 292 583 l 625 583 q 825 519 761 583 q 889 319 889 456 l 889 250 q 825 50 889 114 q 625 -14 761 -14 q 475 -11 554 -14 l 347 -6 q 54 14 206 1 l 54 201 m 479 15 l 479 -40 l 493 -40 q 597 -74 561 -40 q 632 -165 632 -107 q 597 -257 632 -224 q 493 -290 561 -290 l 326 -290 l 326 -200 l 465 -200 q 514 -165 514 -200 q 465 -131 514 -131 l 361 -131 l 361 15 l 479 15 z "},"ş":{"ha":806,"x_min":28,"x_max":778,"o":"m 42 194 q 486 174 324 174 q 521 188 507 174 q 535 222 535 201 l 535 271 l 236 271 q 85 328 142 271 q 28 479 28 385 l 28 528 q 85 679 28 622 q 236 736 142 736 l 708 736 l 708 556 l 319 556 q 285 542 299 556 q 271 507 271 528 q 285 472 271 486 q 319 458 299 458 l 569 458 q 721 401 664 458 q 778 250 778 344 l 778 194 q 721 43 778 100 q 582 -14 664 -14 q 431 -11 500 -14 l 431 -42 l 444 -42 q 548 -75 513 -42 q 583 -167 583 -108 q 548 -258 583 -225 q 444 -292 513 -292 l 278 -292 l 278 -201 l 417 -201 q 465 -167 465 -201 q 417 -132 465 -132 l 313 -132 l 313 -6 q 42 14 263 -3 l 42 194 z "},"Š":{"ha":931,"x_min":42,"x_max":889,"o":"m 42 0 m 54 201 q 569 181 435 181 q 620 199 601 181 q 639 250 639 218 l 639 375 l 319 375 q 108 441 174 375 q 42 653 42 507 l 42 694 q 108 906 42 840 q 319 972 174 972 l 807 972 l 807 778 l 375 778 q 292 694 292 778 l 292 667 q 375 583 292 583 l 625 583 q 825 519 761 583 q 889 319 889 456 l 889 250 q 825 50 889 114 q 625 -14 761 -14 q 475 -11 554 -14 l 347 -6 q 54 14 206 1 l 54 201 m 375 1251 l 465 1140 l 556 1251 l 729 1251 l 563 1015 l 368 1015 l 201 1251 l 375 1251 z "},"š":{"ha":806,"x_min":28,"x_max":778,"o":"m 28 0 m 42 194 q 486 174 324 174 q 521 188 507 174 q 535 222 535 201 l 535 271 l 236 271 q 85 328 142 271 q 28 479 28 385 l 28 528 q 85 679 28 622 q 236 736 142 736 l 708 736 l 708 556 l 319 556 q 285 542 299 556 q 271 507 271 528 q 285 472 271 486 q 319 458 299 458 l 569 458 q 721 401 664 458 q 778 250 778 344 l 778 194 q 721 43 778 100 q 569 -14 664 -14 q 42 14 324 -14 l 42 194 m 306 1029 l 396 918 l 486 1029 l 660 1029 l 493 793 l 299 793 l 132 1029 l 306 1029 z "},"Ţ":{"ha":861,"x_min":14,"x_max":847,"o":"m 14 0 m 556 0 l 306 0 l 306 778 l 14 778 l 14 972 l 847 972 l 847 778 l 556 778 l 556 0 m 313 -42 l 549 -42 l 549 -222 l 451 -375 l 340 -375 l 396 -236 l 313 -236 l 313 -42 z "},"ţ":{"ha":611,"x_min":28,"x_max":583,"o":"m 28 0 m 583 0 q 319 -14 449 -14 q 168 43 225 -14 q 111 194 111 100 l 111 549 l 28 549 l 28 736 l 111 736 l 139 903 l 354 903 l 354 736 l 528 736 l 528 549 l 354 549 l 354 229 q 368 194 354 208 q 403 181 382 181 l 583 181 l 583 0 m 229 -54 l 465 -54 l 465 -235 l 368 -387 l 257 -387 l 313 -249 l 229 -249 l 229 -54 z "},"Ť":{"ha":861,"x_min":14,"x_max":847,"o":"m 14 0 m 556 0 l 306 0 l 306 778 l 14 778 l 14 972 l 847 972 l 847 778 l 556 778 l 556 0 m 340 1251 l 431 1140 l 521 1251 l 694 1251 l 528 1015 l 333 1015 l 167 1251 l 340 1251 z "},"ť":{"ha":833,"x_min":28,"x_max":806,"o":"m 569 972 l 806 972 l 806 792 l 708 639 l 597 639 l 653 778 l 569 778 l 569 972 m 583 0 q 319 -14 449 -14 q 168 43 225 -14 q 111 194 111 100 l 111 549 l 28 549 l 28 736 l 111 736 l 139 903 l 354 903 l 354 736 l 528 736 l 528 549 l 354 549 l 354 229 q 368 194 354 208 q 403 181 382 181 l 583 181 l 583 0 z "},"Ū":{"ha":1042,"x_min":83,"x_max":958,"o":"m 83 0 m 708 972 l 958 972 l 958 264 q 892 52 958 118 q 681 -14 826 -14 l 361 -14 q 149 52 215 -14 q 83 264 83 118 l 83 972 l 333 972 l 333 264 q 417 181 333 181 l 625 181 q 708 264 708 181 l 708 972 m 313 1210 l 729 1210 l 729 1043 l 313 1043 l 313 1210 z "},"ū":{"ha":889,"x_min":69,"x_max":819,"o":"m 69 0 m 410 188 q 576 215 483 188 l 576 736 l 819 736 l 819 0 l 604 0 l 590 69 q 456 6 525 26 q 340 -14 388 -14 l 278 -14 q 126 43 183 -14 q 69 194 69 100 l 69 736 l 313 736 l 313 236 q 326 201 313 215 q 361 188 340 188 l 410 188 m 236 986 l 653 986 l 653 819 l 236 819 l 236 986 z "},"Ů":{"ha":1042,"x_min":83,"x_max":958,"o":"m 83 0 m 708 972 l 958 972 l 958 264 q 892 52 958 118 q 681 -14 826 -14 l 361 -14 q 149 52 215 -14 q 83 264 83 118 l 83 972 l 333 972 l 333 264 q 417 181 333 181 l 625 181 q 708 264 708 181 l 708 972 m 563 1272 q 666 1239 631 1272 q 701 1147 701 1206 l 701 1126 q 666 1035 701 1068 q 563 1001 631 1001 l 479 1001 q 376 1035 411 1001 q 340 1126 340 1068 l 340 1147 q 376 1239 340 1206 q 479 1272 411 1272 l 563 1272 m 583 1140 q 542 1182 583 1182 l 500 1182 q 458 1140 458 1182 l 458 1133 q 500 1092 458 1092 l 542 1092 q 583 1133 583 1092 l 583 1140 z "},"ů":{"ha":889,"x_min":69,"x_max":819,"o":"m 69 0 m 410 188 q 576 215 483 188 l 576 736 l 819 736 l 819 0 l 604 0 l 590 69 q 456 6 525 26 q 340 -14 388 -14 l 278 -14 q 126 43 183 -14 q 69 194 69 100 l 69 736 l 313 736 l 313 236 q 326 201 313 215 q 361 188 340 188 l 410 188 m 486 1049 q 590 1015 554 1049 q 625 924 625 982 l 625 903 q 590 811 625 844 q 486 778 554 778 l 403 778 q 299 811 335 778 q 264 903 264 844 l 264 924 q 299 1015 264 982 q 403 1049 335 1049 l 486 1049 m 507 917 q 465 958 507 958 l 424 958 q 382 917 382 958 l 382 910 q 424 868 382 868 l 465 868 q 507 910 507 868 l 507 917 z "},"Ű":{"ha":1042,"x_min":83,"x_max":958,"o":"m 83 0 m 708 972 l 958 972 l 958 264 q 892 52 958 118 q 681 -14 826 -14 l 361 -14 q 149 52 215 -14 q 83 264 83 118 l 83 972 l 333 972 l 333 264 q 417 181 333 181 l 625 181 q 708 264 708 181 l 708 972 m 556 1001 l 653 1238 l 840 1238 l 701 1001 l 556 1001 m 313 1001 l 410 1238 l 597 1238 l 458 1001 l 313 1001 z "},"ű":{"ha":889,"x_min":69,"x_max":819,"o":"m 69 0 m 410 188 q 576 215 483 188 l 576 736 l 819 736 l 819 0 l 604 0 l 590 69 q 456 6 525 26 q 340 -14 388 -14 l 278 -14 q 126 43 183 -14 q 69 194 69 100 l 69 736 l 313 736 l 313 236 q 326 201 313 215 q 361 188 340 188 l 410 188 m 479 792 l 576 1028 l 764 1028 l 625 792 l 479 792 m 236 792 l 333 1028 l 521 1028 l 382 792 l 236 792 z "},"Ų":{"ha":1042,"x_min":83,"x_max":958,"o":"m 83 0 m 708 972 l 958 972 l 958 264 q 892 52 958 118 q 681 -14 826 -14 l 361 -14 q 149 52 215 -14 q 83 264 83 118 l 83 972 l 333 972 l 333 264 q 417 181 333 181 l 625 181 q 708 264 708 181 l 708 972 m 667 -264 q 528 -278 601 -278 q 418 -245 454 -278 q 382 -164 382 -212 q 461 -36 382 -86 q 542 0 497 -14 l 681 0 q 540 -83 590 -35 q 514 -140 514 -107 q 560 -174 514 -174 q 667 -160 607 -174 l 667 -264 z "},"ų":{"ha":889,"x_min":69,"x_max":819,"o":"m 69 0 m 410 188 q 576 215 483 188 l 576 736 l 819 736 l 819 0 l 604 0 l 590 69 q 456 6 525 26 q 340 -14 388 -14 l 278 -14 q 126 43 183 -14 q 69 194 69 100 l 69 736 l 313 736 l 313 236 q 326 201 313 215 q 361 188 340 188 l 410 188 m 806 -264 q 667 -278 740 -278 q 557 -245 593 -278 q 521 -164 521 -212 q 600 -36 521 -86 q 681 0 636 -14 l 819 0 q 679 -83 729 -35 q 653 -140 653 -107 q 699 -174 653 -174 q 806 -160 746 -174 l 806 -264 z "},"Ÿ":{"ha":931,"x_min":-28,"x_max":958,"o":"m 0 0 m -28 972 l 236 972 l 465 500 l 694 972 l 958 972 l 590 257 l 590 0 l 340 0 l 340 257 l -28 972 m 507 1210 l 743 1210 l 743 1015 l 507 1015 l 507 1210 m 188 1210 l 424 1210 l 424 1015 l 188 1015 l 188 1210 z "},"Ź":{"ha":847,"x_min":28,"x_max":819,"o":"m 28 0 m 819 778 l 333 194 l 819 194 l 819 0 l 28 0 l 28 194 l 514 778 l 28 778 l 28 972 l 819 972 l 819 778 m 313 1015 l 396 1251 l 646 1251 l 493 1015 l 313 1015 z "},"ź":{"ha":743,"x_min":28,"x_max":715,"o":"m 28 0 m 715 549 l 333 188 l 715 188 l 715 0 l 28 0 l 28 188 l 410 549 l 28 549 l 28 736 l 715 736 l 715 549 m 250 793 l 333 1029 l 583 1029 l 431 793 l 250 793 z "},"Ż":{"ha":847,"x_min":28,"x_max":819,"o":"m 28 0 m 819 778 l 333 194 l 819 194 l 819 0 l 28 0 l 28 194 l 514 778 l 28 778 l 28 972 l 819 972 l 819 778 m 306 1251 l 542 1251 l 542 1057 l 306 1057 l 306 1251 z "},"ż":{"ha":743,"x_min":28,"x_max":715,"o":"m 28 0 m 715 549 l 333 188 l 715 188 l 715 0 l 28 0 l 28 188 l 410 549 l 28 549 l 28 736 l 715 736 l 715 549 m 267 1014 l 503 1014 l 503 819 l 267 819 l 267 1014 z "},"Ž":{"ha":847,"x_min":28,"x_max":819,"o":"m 28 0 m 819 778 l 333 194 l 819 194 l 819 0 l 28 0 l 28 194 l 514 778 l 28 778 l 28 972 l 819 972 l 819 778 m 333 1251 l 424 1140 l 514 1251 l 688 1251 l 521 1015 l 326 1015 l 160 1251 l 333 1251 z "},"ž":{"ha":743,"x_min":28,"x_max":715,"o":"m 28 0 m 715 549 l 333 188 l 715 188 l 715 0 l 28 0 l 28 188 l 410 549 l 28 549 l 28 736 l 715 736 l 715 549 m 285 1029 l 375 918 l 465 1029 l 639 1029 l 472 793 l 278 793 l 111 1029 l 285 1029 z "},"ƒ":{"ha":639,"x_min":-181,"x_max":750,"o":"m 472 799 q 435 785 451 799 q 417 750 419 771 l 410 681 l 625 681 l 597 493 l 368 493 l 292 -42 q 211 -190 278 -133 q 49 -250 140 -250 q -181 -236 -69 -250 l -153 -56 l 0 -56 q 37 -42 21 -56 q 56 -7 53 -28 l 125 493 l 28 493 l 56 681 l 167 681 l 181 778 q 259 926 192 867 q 424 986 326 986 q 599 981 508 986 q 750 972 690 975 l 722 799 l 472 799 z "},"Ș":{"ha":931,"x_min":42,"x_max":889,"o":"m 42 0 m 54 201 q 569 181 435 181 q 620 199 601 181 q 639 250 639 218 l 639 375 l 319 375 q 108 441 174 375 q 42 653 42 507 l 42 694 q 108 906 42 840 q 319 972 174 972 l 807 972 l 807 778 l 375 778 q 292 694 292 778 l 292 667 q 375 583 292 583 l 625 583 q 825 519 761 583 q 889 319 889 456 l 889 250 q 825 50 889 114 q 625 -14 761 -14 q 475 -11 554 -14 l 347 -6 q 54 14 206 1 l 54 201 m 354 -54 l 590 -54 l 590 -235 l 493 -387 l 382 -387 l 438 -249 l 354 -249 l 354 -54 z "},"ș":{"ha":806,"x_min":28,"x_max":778,"o":"m 28 0 m 42 194 q 486 174 324 174 q 521 188 507 174 q 535 222 535 201 l 535 271 l 236 271 q 85 328 142 271 q 28 479 28 385 l 28 528 q 85 679 28 622 q 236 736 142 736 l 708 736 l 708 556 l 319 556 q 285 542 299 556 q 271 507 271 528 q 285 472 271 486 q 319 458 299 458 l 569 458 q 721 401 664 458 q 778 250 778 344 l 778 194 q 721 43 778 100 q 569 -14 664 -14 q 42 14 324 -14 l 42 194 m 285 -54 l 521 -54 l 521 -235 l 424 -387 l 313 -387 l 368 -249 l 285 -249 l 285 -54 z "},"ˆ":{"ha":528,"x_min":0,"x_max":528,"o":"m 0 882 l 167 1118 l 361 1118 l 528 882 l 354 882 l 264 993 l 174 882 l 0 882 z "},"ˇ":{"ha":528,"x_min":0,"x_max":528,"o":"m 174 1118 l 264 1007 l 354 1118 l 528 1118 l 361 882 l 167 882 l 0 1118 l 174 1118 z "},"˘":{"ha":500,"x_min":0,"x_max":500,"o":"m 181 910 q 0 1090 0 910 l 0 1132 l 181 1132 l 181 1097 q 194 1063 181 1076 q 229 1049 208 1049 l 271 1049 q 306 1063 292 1049 q 319 1097 319 1076 l 319 1132 l 500 1132 l 500 1090 q 319 910 500 910 l 181 910 z "},"˙":{"ha":236,"x_min":0,"x_max":236,"o":"m 0 1118 l 236 1118 l 236 924 l 0 924 l 0 1118 z "},"˚":{"ha":0,"x_min":-361,"x_max":0,"o":"m -139 1153 q -35 1119 -71 1153 q 0 1028 0 1086 l 0 1007 q -35 915 0 949 q -139 882 -71 882 l -222 882 q -326 915 -290 882 q -361 1007 -361 949 l -361 1028 q -326 1119 -361 1086 q -222 1153 -290 1153 l -139 1153 m -118 1021 q -160 1063 -118 1063 l -201 1063 q -243 1021 -243 1063 l -243 1014 q -201 972 -243 972 l -160 972 q -118 1014 -118 972 l -118 1021 z "},"˛":{"ha":285,"x_min":0,"x_max":299,"o":"m 285 -264 q 146 -278 219 -278 q 36 -245 72 -278 q 0 -164 0 -212 q 79 -36 0 -86 q 160 0 115 -14 l 299 0 q 158 -83 208 -35 q 132 -140 132 -107 q 178 -174 132 -174 q 285 -160 225 -174 l 285 -264 z "},"˜":{"ha":486,"x_min":0,"x_max":486,"o":"m 326 1063 q 396 1118 371 1063 l 486 1063 q 453 985 474 1018 q 326 903 404 903 q 276 914 297 903 q 235 938 254 925 q 199 961 217 950 q 160 972 181 972 q 90 917 115 972 l 0 972 q 82 1107 22 1058 q 151 1132 113 1132 q 210 1121 189 1132 q 251 1097 232 1110 q 288 1074 269 1085 q 326 1063 306 1063 z "},"˝":{"ha":528,"x_min":0,"x_max":528,"o":"m 243 882 l 340 1118 l 528 1118 l 389 882 l 243 882 m 0 882 l 97 1118 l 285 1118 l 146 882 l 0 882 z "},"Ё":{"ha":882,"x_min":83,"x_max":854,"o":"m 854 0 l 83 0 l 83 972 l 854 972 l 854 778 l 333 778 l 333 590 l 743 590 l 743 396 l 333 396 l 333 194 l 854 194 l 854 0 m 194 1250 l 431 1250 l 431 1056 l 194 1056 l 194 1250 m 514 1250 l 750 1250 l 750 1056 l 514 1056 l 514 1250 z "},"Ђ":{"ha":1097,"x_min":14,"x_max":1056,"o":"m 1056 194 q 999 43 1056 100 q 839 -14 942 -14 q 625 0 736 -14 l 625 188 l 757 188 q 792 201 778 188 q 806 236 806 215 l 806 375 q 787 426 806 407 q 731 444 768 444 q 583 439 660 444 q 458 431 507 433 l 458 0 l 208 0 l 208 778 l 14 778 l 14 972 l 708 972 l 708 778 l 458 778 l 458 625 q 564 631 513 628 q 804 639 679 639 q 1056 375 1056 639 l 1056 194 z "},"Ѓ":{"ha":854,"x_min":83,"x_max":840,"o":"m 333 0 l 83 0 l 83 972 l 840 972 l 840 778 l 333 778 l 333 0 m 361 1014 l 444 1250 l 694 1250 l 542 1014 l 361 1014 z "},"Є":{"ha":861,"x_min":56,"x_max":833,"o":"m 833 14 q 319 -14 524 -14 q 119 50 183 -14 q 56 250 56 114 l 56 694 q 122 906 56 840 q 333 972 188 972 l 833 972 l 833 778 l 389 778 q 306 694 306 778 l 306 576 l 675 576 l 675 382 l 306 382 l 306 250 q 324 199 306 218 q 372 181 343 181 q 436 181 401 181 q 508 183 471 182 q 584 186 546 185 q 683 192 622 188 q 833 201 743 196 l 833 14 z "},"Ѕ":{"ha":931,"x_min":42,"x_max":889,"o":"m 54 201 q 569 181 435 181 q 620 199 601 181 q 639 250 639 218 l 639 375 l 319 375 q 108 441 174 375 q 42 653 42 507 l 42 694 q 108 906 42 840 q 319 972 174 972 l 807 972 l 807 778 l 375 778 q 292 694 292 778 l 292 667 q 375 583 292 583 l 625 583 q 825 519 761 583 q 889 319 889 456 l 889 250 q 825 50 889 114 q 625 -14 761 -14 q 475 -11 554 -14 l 347 -6 q 54 14 206 1 l 54 201 z "},"І":{"ha":583,"x_min":42,"x_max":542,"o":"m 542 0 l 42 0 l 42 194 l 167 194 l 167 778 l 42 778 l 42 972 l 542 972 l 542 778 l 417 778 l 417 194 l 542 194 l 542 0 z "},"Ї":{"ha":583,"x_min":14,"x_max":569,"o":"m 542 0 l 42 0 l 42 194 l 167 194 l 167 778 l 42 778 l 42 972 l 542 972 l 542 778 l 417 778 l 417 194 l 542 194 l 542 0 m 14 1236 l 250 1236 l 250 1042 l 14 1042 l 14 1236 m 333 1236 l 569 1236 l 569 1042 l 333 1042 l 333 1236 z "},"Ј":{"ha":639,"x_min":14,"x_max":556,"o":"m 556 250 q 492 50 556 114 q 295 -14 428 -14 q 14 0 163 -14 l 14 188 q 236 181 122 181 q 287 199 268 181 q 306 250 306 218 l 306 778 l 125 778 l 125 972 l 556 972 l 556 250 z "},"Љ":{"ha":1521,"x_min":14,"x_max":1479,"o":"m 375 201 q 311 44 368 101 q 171 -14 254 -14 q 14 0 88 -14 l 14 188 l 76 188 q 120 206 103 188 q 139 250 138 224 l 181 972 l 903 972 l 903 639 l 1201 639 q 1413 573 1347 639 q 1479 361 1479 507 l 1479 278 q 1413 66 1479 132 q 1201 0 1347 0 l 667 0 l 667 778 l 410 778 l 375 201 m 1229 361 q 1146 444 1229 444 l 903 444 l 903 194 l 1146 194 q 1229 278 1229 194 l 1229 361 z "},"Њ":{"ha":1500,"x_min":83,"x_max":1458,"o":"m 882 611 l 1181 611 q 1392 545 1326 611 q 1458 333 1458 479 l 1458 278 q 1392 66 1458 132 q 1181 0 1326 0 l 646 0 l 646 417 l 333 417 l 333 0 l 83 0 l 83 972 l 333 972 l 333 611 l 646 611 l 646 972 l 882 972 l 882 611 m 1208 333 q 1125 417 1208 417 l 882 417 l 882 194 l 1125 194 q 1208 278 1208 194 l 1208 333 z "},"Ћ":{"ha":1097,"x_min":0,"x_max":1042,"o":"m 1042 0 l 792 0 l 792 375 q 773 426 792 407 q 717 444 754 444 q 569 439 646 444 q 444 431 493 433 l 444 0 l 194 0 l 194 778 l 0 778 l 0 972 l 694 972 l 694 778 l 444 778 l 444 625 q 550 631 499 628 q 789 639 665 639 q 1042 375 1042 639 l 1042 0 z "},"Ќ":{"ha":938,"x_min":83,"x_max":938,"o":"m 389 986 l 472 1222 l 722 1222 l 569 986 l 389 986 m 792 986 q 917 972 826 986 l 917 785 l 861 785 q 824 772 840 785 q 799 743 807 758 l 667 493 l 938 0 l 674 0 l 458 396 l 333 396 l 333 0 l 83 0 l 83 972 l 333 972 l 333 590 l 458 590 l 597 854 q 673 949 628 913 q 792 986 718 986 z "},"Ў":{"ha":958,"x_min":-28,"x_max":986,"o":"m 317 -14 q 174 0 247 -14 l 174 188 l 299 188 q 354 219 339 188 q 361 249 361 233 q 354 278 361 265 l -28 972 l 250 972 l 500 479 l 708 972 l 986 972 l 632 208 q 515 44 583 99 q 317 -14 440 -14 m 417 1014 q 236 1194 236 1014 l 236 1236 l 417 1236 l 417 1201 q 431 1167 417 1181 q 465 1153 444 1153 l 507 1153 q 542 1167 528 1153 q 556 1201 556 1181 l 556 1236 l 736 1236 l 736 1194 q 556 1014 736 1014 l 417 1014 z "},"Џ":{"ha":1014,"x_min":83,"x_max":931,"o":"m 83 0 l 83 972 l 333 972 l 333 194 l 681 194 l 681 972 l 931 972 l 931 0 l 632 0 l 618 -181 l 396 -181 l 382 0 l 83 0 z "},"А":{"ha":986,"x_min":-14,"x_max":1000,"o":"m 257 0 l -14 0 l 354 972 l 632 972 l 1000 0 l 729 0 l 667 174 l 319 174 l 257 0 m 382 354 l 604 354 l 493 681 l 382 354 z "},"Б":{"ha":986,"x_min":83,"x_max":944,"o":"m 333 597 l 667 597 q 878 531 813 597 q 944 319 944 465 l 944 278 q 878 66 944 132 q 667 0 813 0 l 83 0 l 83 972 l 854 972 l 854 778 l 333 778 l 333 597 m 694 319 q 611 403 694 403 l 333 403 l 333 194 l 611 194 q 694 278 694 194 l 694 319 z "},"В":{"ha":986,"x_min":83,"x_max":944,"o":"m 83 972 l 639 972 q 839 910 775 972 q 903 722 903 849 q 867 587 903 639 q 778 514 831 535 q 931 364 890 483 q 944 264 944 321 q 881 64 944 128 q 681 0 817 0 l 83 0 l 83 972 m 694 306 q 611 389 694 389 l 333 389 l 333 194 l 611 194 q 694 278 694 194 l 694 306 m 653 694 q 569 778 653 778 l 333 778 l 333 583 l 569 583 q 653 667 653 583 l 653 694 z "},"Г":{"ha":854,"x_min":83,"x_max":840,"o":"m 333 0 l 83 0 l 83 972 l 840 972 l 840 778 l 333 778 l 333 0 z "},"Д":{"ha":1083,"x_min":14,"x_max":1056,"o":"m 222 972 l 951 972 l 951 194 l 1056 194 l 1056 -181 l 819 -181 l 806 0 l 264 0 l 250 -181 l 14 -181 l 14 194 l 104 194 q 165 298 144 240 q 188 403 185 356 l 222 972 m 701 194 l 701 778 l 444 778 l 424 431 q 382 260 419 346 q 347 194 367 224 l 701 194 z "},"Е":{"ha":882,"x_min":83,"x_max":854,"o":"m 854 0 l 83 0 l 83 972 l 854 972 l 854 778 l 333 778 l 333 590 l 743 590 l 743 396 l 333 396 l 333 194 l 854 194 l 854 0 z "},"Ж":{"ha":1403,"x_min":0,"x_max":1403,"o":"m 1257 986 q 1382 972 1292 986 l 1382 785 l 1326 785 q 1289 772 1306 785 q 1264 743 1272 758 l 1132 493 l 1403 0 l 1139 0 l 924 396 l 826 396 l 826 0 l 576 0 l 576 396 l 479 396 l 264 0 l 0 0 l 271 493 l 139 743 q 114 772 131 758 q 76 785 97 785 l 21 785 l 21 972 q 146 986 111 986 q 265 949 219 986 q 340 854 310 913 l 479 590 l 576 590 l 576 972 l 826 972 l 826 590 l 924 590 l 1063 854 q 1138 949 1093 913 q 1257 986 1183 986 z "},"З":{"ha":889,"x_min":28,"x_max":847,"o":"m 28 201 q 528 181 382 181 q 578 199 560 181 q 597 250 597 218 l 597 306 q 514 389 597 389 l 181 389 l 181 583 l 486 583 q 569 667 569 583 l 569 694 q 486 778 569 778 l 42 778 l 42 972 l 556 972 q 756 910 692 972 q 819 722 819 849 q 781 587 819 639 q 681 514 743 535 q 833 364 793 483 q 847 264 847 321 l 847 250 q 783 50 847 114 q 583 -14 719 -14 q 28 14 351 -14 l 28 201 z "},"И":{"ha":1014,"x_min":83,"x_max":931,"o":"m 931 0 l 681 0 l 681 597 l 347 0 l 83 0 l 83 972 l 333 972 l 333 375 l 667 972 l 931 972 l 931 0 z "},"Й":{"ha":1014,"x_min":83,"x_max":931,"o":"m 681 0 l 681 597 l 347 0 l 83 0 l 83 972 l 333 972 l 333 375 l 667 972 l 931 972 l 931 0 l 681 0 m 431 1042 q 250 1222 250 1042 l 250 1264 l 431 1264 l 431 1229 q 444 1194 431 1208 q 479 1181 458 1181 l 521 1181 q 556 1194 542 1181 q 569 1229 569 1208 l 569 1264 l 750 1264 l 750 1222 q 569 1042 750 1042 l 431 1042 z "},"К":{"ha":938,"x_min":83,"x_max":938,"o":"m 792 986 q 917 972 826 986 l 917 785 l 861 785 q 824 772 840 785 q 799 743 807 758 l 667 493 l 938 0 l 674 0 l 458 396 l 333 396 l 333 0 l 83 0 l 83 972 l 333 972 l 333 590 l 458 590 l 597 854 q 673 949 628 913 q 792 986 718 986 z "},"Л":{"ha":1035,"x_min":14,"x_max":951,"o":"m 375 201 q 311 44 368 101 q 171 -14 254 -14 q 14 0 88 -14 l 14 188 l 76 188 q 120 206 103 188 q 139 250 138 224 l 181 972 l 951 972 l 951 0 l 701 0 l 701 778 l 410 778 l 375 201 z "},"М":{"ha":1250,"x_min":83,"x_max":1167,"o":"m 917 542 l 722 194 l 528 194 l 333 542 l 333 0 l 83 0 l 83 972 l 347 972 l 625 458 l 903 972 l 1167 972 l 1167 0 l 917 0 l 917 542 z "},"Н":{"ha":1014,"x_min":83,"x_max":931,"o":"m 931 0 l 681 0 l 681 396 l 333 396 l 333 0 l 83 0 l 83 972 l 333 972 l 333 590 l 681 590 l 681 972 l 931 972 l 931 0 z "},"О":{"ha":1014,"x_min":56,"x_max":958,"o":"m 708 708 q 625 792 708 792 l 389 792 q 306 708 306 792 l 306 264 q 389 181 306 181 l 625 181 q 708 264 708 181 l 708 708 m 958 264 q 892 52 958 118 q 681 -14 826 -14 l 333 -14 q 122 52 188 -14 q 56 264 56 118 l 56 708 q 122 920 56 854 q 333 986 188 986 l 681 986 q 892 920 826 986 q 958 708 958 854 l 958 264 z "},"П":{"ha":1014,"x_min":83,"x_max":931,"o":"m 931 0 l 681 0 l 681 778 l 333 778 l 333 0 l 83 0 l 83 972 l 931 972 l 931 0 z "},"Р":{"ha":986,"x_min":83,"x_max":944,"o":"m 83 972 l 667 972 q 878 906 813 972 q 944 694 944 840 l 944 556 q 878 344 944 410 q 667 278 813 278 l 333 278 l 333 0 l 83 0 l 83 972 m 694 694 q 611 778 694 778 l 333 778 l 333 472 l 611 472 q 694 556 694 472 l 694 694 z "},"С":{"ha":861,"x_min":56,"x_max":833,"o":"m 833 14 q 319 -14 524 -14 q 119 50 183 -14 q 56 250 56 114 l 56 694 q 122 906 56 840 q 333 972 188 972 l 833 972 l 833 778 l 389 778 q 306 694 306 778 l 306 250 q 324 199 306 218 q 372 181 343 181 q 436 181 401 181 q 508 183 471 182 q 584 186 546 185 q 683 192 622 188 q 833 201 743 196 l 833 14 z "},"Т":{"ha":861,"x_min":14,"x_max":847,"o":"m 556 0 l 306 0 l 306 778 l 14 778 l 14 972 l 847 972 l 847 778 l 556 778 l 556 0 z "},"У":{"ha":958,"x_min":-28,"x_max":986,"o":"m 317 -14 q 174 0 247 -14 l 174 188 l 299 188 q 354 219 339 188 q 361 249 361 233 q 354 278 361 265 l -28 972 l 250 972 l 500 479 l 708 972 l 986 972 l 632 208 q 515 44 583 99 q 317 -14 440 -14 z "},"Ф":{"ha":1222,"x_min":42,"x_max":1181,"o":"m 1181 347 q 1115 135 1181 201 q 903 69 1049 69 l 736 69 l 736 -28 l 486 -28 l 486 69 l 319 69 q 108 135 174 69 q 42 347 42 201 l 42 625 q 108 837 42 771 q 319 903 174 903 l 486 903 l 486 1000 l 736 1000 l 736 903 l 903 903 q 1115 837 1049 903 q 1181 625 1181 771 l 1181 347 m 931 625 q 847 708 931 708 l 722 708 l 722 264 l 847 264 q 931 347 931 264 l 931 625 m 292 347 q 375 264 292 264 l 500 264 l 500 708 l 375 708 q 292 625 292 708 l 292 347 z "},"Х":{"ha":917,"x_min":-14,"x_max":931,"o":"m 646 972 l 924 972 l 611 486 l 931 0 l 653 0 l 458 306 l 264 0 l -14 0 l 306 486 l -7 972 l 269 972 l 458 667 l 646 972 z "},"Ц":{"ha":1063,"x_min":83,"x_max":1035,"o":"m 83 0 l 83 972 l 333 972 l 333 194 l 681 194 l 681 972 l 931 972 l 931 194 l 1035 194 l 1035 -181 l 799 -181 l 785 0 l 83 0 z "},"Ч":{"ha":979,"x_min":56,"x_max":896,"o":"m 646 319 q 331 306 479 306 q 119 369 183 306 q 56 569 56 433 l 56 972 l 306 972 l 306 569 q 324 519 306 538 q 375 500 343 500 q 646 514 489 500 l 646 972 l 896 972 l 896 0 l 646 0 l 646 319 z "},"Ш":{"ha":1389,"x_min":83,"x_max":1306,"o":"m 1306 0 l 83 0 l 83 972 l 333 972 l 333 194 l 569 194 l 569 972 l 819 972 l 819 194 l 1056 194 l 1056 972 l 1306 972 l 1306 0 z "},"Щ":{"ha":1438,"x_min":83,"x_max":1410,"o":"m 83 0 l 83 972 l 333 972 l 333 194 l 569 194 l 569 972 l 819 972 l 819 194 l 1056 194 l 1056 972 l 1306 972 l 1306 194 l 1410 194 l 1410 -181 l 1174 -181 l 1160 0 l 83 0 z "},"Ъ":{"ha":1111,"x_min":14,"x_max":1069,"o":"m 458 972 l 458 639 l 792 639 q 1003 573 938 639 q 1069 361 1069 507 l 1069 278 q 1003 66 1069 132 q 792 0 938 0 l 208 0 l 208 778 l 14 778 l 14 972 l 458 972 m 819 361 q 736 444 819 444 l 458 444 l 458 194 l 736 194 q 819 278 819 194 l 819 361 z "},"Ы":{"ha":1375,"x_min":83,"x_max":1292,"o":"m 333 639 l 653 639 q 865 573 799 639 q 931 361 931 507 l 931 278 q 865 66 931 132 q 653 0 799 0 l 83 0 l 83 972 l 333 972 l 333 639 m 1292 0 l 1042 0 l 1042 972 l 1292 972 l 1292 0 m 681 361 q 597 444 681 444 l 333 444 l 333 194 l 597 194 q 681 278 681 194 l 681 361 z "},"Ь":{"ha":986,"x_min":83,"x_max":944,"o":"m 333 639 l 667 639 q 878 573 813 639 q 944 361 944 507 l 944 278 q 878 66 944 132 q 667 0 813 0 l 83 0 l 83 972 l 333 972 l 333 639 m 694 361 q 611 444 694 444 l 333 444 l 333 194 l 611 194 q 694 278 694 194 l 694 361 z "},"Э":{"ha":861,"x_min":28,"x_max":806,"o":"m 28 201 q 486 181 367 181 q 537 199 518 181 q 556 250 556 218 l 556 382 l 186 382 l 186 576 l 556 576 l 556 694 q 472 778 556 778 l 42 778 l 42 972 l 528 972 q 740 906 674 972 q 806 694 806 840 l 806 250 q 742 50 806 114 q 542 -14 678 -14 q 28 14 333 -14 l 28 201 z "},"Ю":{"ha":1347,"x_min":83,"x_max":1292,"o":"m 1292 264 q 1226 52 1292 118 q 1014 -14 1160 -14 l 736 -14 q 524 52 590 -14 q 458 264 458 118 l 458 396 l 333 396 l 333 0 l 83 0 l 83 972 l 333 972 l 333 590 l 458 590 l 458 708 q 524 920 458 854 q 736 986 590 986 l 1014 986 q 1226 920 1160 986 q 1292 708 1292 854 l 1292 264 m 1042 708 q 958 792 1042 792 l 792 792 q 708 708 708 792 l 708 264 q 792 181 708 181 l 958 181 q 1042 264 1042 181 l 1042 708 z "},"Я":{"ha":1000,"x_min":42,"x_max":917,"o":"m 917 0 l 667 0 l 667 319 l 479 319 l 306 0 l 42 0 l 222 333 q 94 418 133 354 q 56 597 56 482 l 56 694 q 122 906 56 840 q 333 972 188 972 l 917 972 l 917 0 m 306 597 q 389 514 306 514 l 667 514 l 667 778 l 389 778 q 306 694 306 778 l 306 597 z "},"а":{"ha":826,"x_min":35,"x_max":771,"o":"m 361 181 q 528 208 435 181 l 528 292 l 326 292 q 292 278 306 292 q 278 243 278 264 l 278 229 q 292 194 278 208 q 326 181 306 181 l 361 181 m 104 722 q 563 750 358 750 q 714 693 657 750 q 771 542 771 636 l 771 0 l 556 0 l 542 69 q 408 6 476 26 q 292 -14 339 -14 l 243 -14 q 92 43 149 -14 q 35 194 35 100 l 35 257 q 92 408 35 351 q 243 465 149 465 l 528 465 l 528 521 q 514 556 528 542 q 479 569 500 569 q 280 561 389 569 q 104 549 171 553 l 104 722 z "},"б":{"ha":847,"x_min":56,"x_max":806,"o":"m 299 611 q 535 639 433 639 l 597 639 q 749 582 692 639 q 806 431 806 525 l 806 208 q 747 45 806 104 q 583 -14 688 -14 l 278 -14 q 115 45 174 -14 q 56 208 56 104 l 56 701 q 123 869 56 801 q 306 951 190 938 l 778 1007 l 799 813 l 368 764 q 299 694 299 756 l 299 611 m 507 174 q 563 229 563 174 l 563 403 q 549 438 563 424 q 514 451 535 451 l 465 451 q 368 446 411 451 q 299 438 325 440 l 299 229 q 354 174 299 174 l 507 174 z "},"в":{"ha":833,"x_min":69,"x_max":806,"o":"m 597 0 l 69 0 l 69 736 l 556 736 q 706 681 649 736 q 764 558 764 626 q 735 447 764 490 q 653 389 706 404 q 760 328 715 378 q 806 194 806 278 q 748 56 806 111 q 597 0 690 0 m 563 236 q 549 271 563 257 q 514 285 535 285 l 313 285 l 313 167 l 514 167 q 549 181 535 167 q 563 215 563 194 l 563 236 m 521 521 q 507 556 521 542 q 472 569 493 569 l 313 569 l 313 444 l 472 444 q 507 458 493 444 q 521 493 521 472 l 521 521 z "},"г":{"ha":681,"x_min":69,"x_max":667,"o":"m 667 736 l 667 549 l 313 549 l 313 0 l 69 0 l 69 736 l 667 736 z "},"д":{"ha":958,"x_min":14,"x_max":931,"o":"m 396 347 q 340 188 389 250 l 583 188 l 583 549 l 410 549 l 396 347 m 826 736 l 826 188 l 931 188 l 931 -167 l 700 -167 l 686 0 l 258 0 l 244 -167 l 14 -167 l 14 188 l 104 188 q 167 333 160 253 l 194 736 l 826 736 z "},"е":{"ha":833,"x_min":56,"x_max":778,"o":"m 354 576 q 299 521 299 576 l 299 444 l 535 444 l 535 521 q 479 576 535 576 l 354 576 m 750 14 q 264 -14 482 -14 q 113 43 169 -14 q 56 194 56 100 l 56 528 q 115 691 56 632 q 278 750 174 750 l 556 750 q 719 691 660 750 q 778 528 778 632 l 778 271 l 299 271 l 299 215 q 313 181 299 194 q 347 167 326 167 q 750 188 485 167 l 750 14 z "},"ж":{"ha":1215,"x_min":0,"x_max":1215,"o":"m 264 0 l 0 0 l 208 368 l 139 507 q 69 549 117 549 l 21 549 l 21 736 l 56 743 q 132 750 93 750 q 202 739 171 750 q 258 710 233 728 q 333 618 307 675 l 410 465 l 486 465 l 486 736 l 729 736 l 729 465 l 806 465 l 882 618 q 1014 739 924 707 q 1075 750 1044 750 q 1160 743 1122 750 l 1194 736 l 1194 549 l 1146 549 q 1076 507 1099 549 l 1007 368 l 1215 0 l 951 0 l 799 278 l 729 278 l 729 0 l 486 0 l 486 278 l 417 278 l 264 0 z "},"з":{"ha":764,"x_min":28,"x_max":736,"o":"m 28 181 q 444 160 293 160 q 479 174 465 160 q 493 208 493 188 l 493 229 q 479 264 493 250 q 444 278 465 278 l 139 278 l 139 451 l 417 451 q 451 465 438 451 q 465 500 465 479 l 465 514 q 451 549 465 535 q 417 563 438 563 l 42 563 l 42 736 l 500 736 q 651 681 593 736 q 708 558 708 626 q 583 389 708 419 q 691 328 646 378 q 736 189 736 278 q 679 43 736 100 q 528 -14 622 -14 q 28 14 296 -14 l 28 181 z "},"и":{"ha":875,"x_min":69,"x_max":806,"o":"m 549 736 l 806 736 l 806 0 l 563 0 l 563 403 l 326 0 l 69 0 l 69 736 l 313 736 l 313 333 l 549 736 z "},"й":{"ha":875,"x_min":69,"x_max":806,"o":"m 361 806 q 181 986 181 806 l 181 1028 l 361 1028 l 361 993 q 375 958 361 972 q 410 944 389 944 l 451 944 q 486 958 472 944 q 500 993 500 972 l 500 1028 l 681 1028 l 681 986 q 500 806 681 806 l 361 806 m 549 736 l 806 736 l 806 0 l 563 0 l 563 403 l 326 0 l 69 0 l 69 736 l 313 736 l 313 333 l 549 736 z "},"к":{"ha":833,"x_min":69,"x_max":833,"o":"m 417 278 l 313 278 l 313 0 l 69 0 l 69 736 l 313 736 l 313 465 l 424 465 l 500 618 q 631 739 542 707 q 692 750 663 750 q 778 743 739 750 l 813 736 l 813 549 l 764 549 q 694 507 717 549 l 625 368 l 833 0 l 569 0 l 417 278 z "},"л":{"ha":889,"x_min":14,"x_max":819,"o":"m 153 -14 q 14 0 93 -14 l 14 181 l 69 181 q 125 236 122 181 l 153 736 l 819 736 l 819 0 l 576 0 l 576 549 l 382 549 l 361 194 q 299 43 356 100 q 153 -14 242 -14 z "},"м":{"ha":1083,"x_min":69,"x_max":1014,"o":"m 632 125 l 451 125 l 313 375 l 313 0 l 69 0 l 69 736 l 326 736 l 542 347 l 757 736 l 1014 736 l 1014 0 l 771 0 l 771 375 l 632 125 z "},"н":{"ha":875,"x_min":69,"x_max":806,"o":"m 563 465 l 563 736 l 806 736 l 806 0 l 563 0 l 563 278 l 313 278 l 313 0 l 69 0 l 69 736 l 313 736 l 313 465 l 563 465 z "},"о":{"ha":875,"x_min":56,"x_max":819,"o":"m 819 208 q 760 45 819 104 q 597 -14 701 -14 l 278 -14 q 115 45 174 -14 q 56 208 56 104 l 56 528 q 115 691 56 632 q 278 750 174 750 l 597 750 q 760 691 701 750 q 819 528 819 632 l 819 208 m 576 507 q 521 563 576 563 l 354 563 q 299 507 299 563 l 299 229 q 354 174 299 174 l 521 174 q 576 229 576 174 l 576 507 z "},"п":{"ha":875,"x_min":69,"x_max":806,"o":"m 806 736 l 806 0 l 563 0 l 563 549 l 313 549 l 313 0 l 69 0 l 69 736 l 806 736 z "},"р":{"ha":875,"x_min":69,"x_max":819,"o":"m 479 549 q 313 521 406 549 l 313 188 l 521 188 q 576 243 576 188 l 576 500 q 563 535 576 521 q 528 549 549 549 l 479 549 m 313 0 l 313 -236 l 69 -236 l 69 736 l 285 736 l 299 667 q 433 730 364 710 q 549 750 501 750 l 611 750 q 763 693 706 750 q 819 542 819 636 l 819 222 q 760 59 819 118 q 597 0 701 0 l 313 0 z "},"с":{"ha":764,"x_min":56,"x_max":722,"o":"m 722 14 q 264 -14 463 -14 q 113 43 169 -14 q 56 194 56 100 l 56 514 q 115 677 56 618 q 278 736 174 736 l 722 736 l 722 549 l 354 549 q 299 493 299 549 l 299 222 q 313 188 299 201 q 347 174 326 174 q 722 194 472 174 l 722 14 z "},"т":{"ha":729,"x_min":14,"x_max":715,"o":"m 486 549 l 486 0 l 243 0 l 243 549 l 14 549 l 14 736 l 715 736 l 715 549 l 486 549 z "},"у":{"ha":792,"x_min":-14,"x_max":819,"o":"m 264 -250 q 83 -236 190 -250 l 83 -56 l 208 -56 q 277 -26 261 -56 q 271 56 293 3 l -14 736 l 243 736 l 417 264 l 563 736 l 819 736 l 542 -28 q 438 -194 501 -137 q 264 -250 374 -250 z "},"ф":{"ha":1104,"x_min":56,"x_max":1049,"o":"m 1049 222 q 990 59 1049 118 q 826 0 931 0 l 674 0 l 674 -236 l 431 -236 l 431 0 l 278 0 q 115 59 174 0 q 56 222 56 118 l 56 514 q 115 677 56 618 q 278 736 174 736 l 431 736 l 431 972 l 674 972 l 674 736 l 826 736 q 990 677 931 736 q 1049 514 1049 618 l 1049 222 m 299 243 q 354 188 299 188 l 451 188 l 451 549 l 354 549 q 299 493 299 549 l 299 243 m 806 493 q 750 549 806 549 l 667 549 l 667 188 l 750 188 q 806 243 806 188 l 806 493 z "},"х":{"ha":792,"x_min":-14,"x_max":806,"o":"m 528 736 l 799 736 l 563 368 l 806 0 l 535 0 l 396 222 l 257 0 l -14 0 l 229 368 l -7 736 l 264 736 l 396 514 l 528 736 z "},"ц":{"ha":938,"x_min":69,"x_max":910,"o":"m 667 0 l 69 0 l 69 736 l 313 736 l 313 188 l 563 188 l 563 736 l 806 736 l 806 188 l 910 188 l 910 -167 l 681 -167 l 667 0 z "},"ч":{"ha":854,"x_min":56,"x_max":785,"o":"m 347 396 q 542 403 465 396 l 542 736 l 785 736 l 785 0 l 542 0 l 542 222 q 264 208 393 208 q 113 265 169 208 q 56 417 56 322 l 56 736 l 299 736 l 299 444 q 313 410 299 424 q 347 396 326 396 z "},"ш":{"ha":1188,"x_min":69,"x_max":1118,"o":"m 69 0 l 69 736 l 313 736 l 313 188 l 472 188 l 472 736 l 715 736 l 715 188 l 875 188 l 875 736 l 1118 736 l 1118 0 l 69 0 z "},"щ":{"ha":1250,"x_min":69,"x_max":1222,"o":"m 979 0 l 69 0 l 69 736 l 313 736 l 313 188 l 472 188 l 472 736 l 715 736 l 715 188 l 875 188 l 875 736 l 1118 736 l 1118 188 l 1222 188 l 1222 -167 l 993 -167 l 979 0 z "},"ъ":{"ha":972,"x_min":14,"x_max":944,"o":"m 451 736 l 451 507 l 736 507 q 888 450 831 507 q 944 299 944 393 l 944 208 q 888 57 944 114 q 736 0 831 0 l 208 0 l 208 549 l 14 549 l 14 736 l 451 736 m 653 174 q 688 188 674 174 q 701 222 701 201 l 701 285 q 688 319 701 306 q 653 333 674 333 l 451 333 l 451 174 l 653 174 z "},"ы":{"ha":1194,"x_min":69,"x_max":1125,"o":"m 69 0 l 69 736 l 313 736 l 313 507 l 583 507 q 735 450 678 507 q 792 299 792 393 l 792 208 q 735 57 792 114 q 583 0 678 0 l 69 0 m 500 174 q 535 188 521 174 q 549 222 549 201 l 549 283 q 535 318 549 304 q 500 332 521 332 l 313 332 l 313 174 l 500 174 m 1125 0 l 882 0 l 882 736 l 1125 736 l 1125 0 z "},"ь":{"ha":833,"x_min":69,"x_max":806,"o":"m 69 0 l 69 736 l 313 736 l 313 507 l 597 507 q 749 450 692 507 q 806 299 806 393 l 806 208 q 749 57 806 114 q 597 0 692 0 l 69 0 m 514 174 q 549 188 535 174 q 563 222 563 201 l 563 285 q 549 319 563 306 q 514 333 535 333 l 313 333 l 313 174 l 514 174 z "},"э":{"ha":764,"x_min":42,"x_max":708,"o":"m 500 -14 q 42 14 296 -14 l 42 181 q 417 160 292 160 q 451 174 438 160 q 465 208 465 188 l 465 278 l 153 278 l 153 451 l 465 451 l 465 507 q 410 563 465 563 l 56 563 l 56 736 l 486 736 q 649 677 590 736 q 708 514 708 618 l 708 194 q 651 43 708 100 q 500 -14 594 -14 z "},"ю":{"ha":1181,"x_min":69,"x_max":1125,"o":"m 417 465 l 417 528 q 476 691 417 632 q 639 750 535 750 l 903 750 q 1066 691 1007 750 q 1125 528 1125 632 l 1125 208 q 1066 45 1125 104 q 903 -14 1007 -14 l 639 -14 q 476 45 535 -14 q 417 208 417 104 l 417 278 l 313 278 l 313 0 l 69 0 l 69 736 l 313 736 l 313 465 l 417 465 m 882 507 q 826 563 882 563 l 715 563 q 660 507 660 563 l 660 229 q 715 174 660 174 l 826 174 q 882 229 882 174 l 882 507 z "},"я":{"ha":861,"x_min":42,"x_max":792,"o":"m 792 736 l 792 0 l 549 0 l 549 229 l 431 229 l 299 0 l 42 0 l 181 243 q 89 314 122 264 q 56 438 56 364 l 56 528 q 113 679 56 622 q 264 736 169 736 l 792 736 m 347 563 q 313 549 326 563 q 299 514 299 535 l 299 451 q 313 417 299 431 q 347 403 326 403 l 549 403 l 549 563 l 347 563 z "},"ё":{"ha":833,"x_min":56,"x_max":778,"o":"m 139 1014 l 375 1014 l 375 819 l 139 819 l 139 1014 m 458 1014 l 694 1014 l 694 819 l 458 819 l 458 1014 m 354 576 q 299 521 299 576 l 299 444 l 535 444 l 535 521 q 479 576 535 576 l 354 576 m 750 14 q 264 -14 482 -14 q 113 43 169 -14 q 56 194 56 100 l 56 528 q 115 691 56 632 q 278 750 174 750 l 556 750 q 719 691 660 750 q 778 528 778 632 l 778 271 l 299 271 l 299 215 q 313 181 299 194 q 347 167 326 167 q 750 188 485 167 l 750 14 z "},"ђ":{"ha":903,"x_min":28,"x_max":861,"o":"m 354 597 q 590 625 489 625 l 653 625 q 804 568 747 625 q 861 417 861 511 l 861 194 q 804 43 861 100 q 656 -14 747 -14 q 472 0 565 -14 l 472 181 l 569 181 q 604 194 590 181 q 618 229 618 208 l 618 389 q 604 424 618 410 q 569 438 590 438 l 521 438 q 424 432 467 438 q 354 424 381 426 l 354 0 l 111 0 l 111 688 l 28 688 l 28 861 l 111 861 l 139 972 l 354 972 l 354 861 l 528 861 l 528 688 l 354 688 l 354 597 z "},"ѓ":{"ha":681,"x_min":69,"x_max":667,"o":"m 667 736 l 667 549 l 313 549 l 313 0 l 69 0 l 69 736 l 667 736 m 236 792 l 319 1028 l 569 1028 l 417 792 l 236 792 z "},"є":{"ha":764,"x_min":56,"x_max":722,"o":"m 722 14 q 264 -14 463 -14 q 113 43 169 -14 q 56 194 56 100 l 56 514 q 115 677 56 618 q 278 736 174 736 l 708 736 l 708 563 l 354 563 q 299 507 299 563 l 299 451 l 611 451 l 611 278 l 299 278 l 299 208 q 313 174 299 188 q 347 160 326 160 q 722 181 472 160 l 722 14 z "},"ѕ":{"ha":806,"x_min":28,"x_max":778,"o":"m 42 194 q 486 174 324 174 q 521 188 507 174 q 535 222 535 201 l 535 271 l 236 271 q 85 328 142 271 q 28 479 28 385 l 28 528 q 85 679 28 622 q 236 736 142 736 l 708 736 l 708 556 l 319 556 q 285 542 299 556 q 271 507 271 528 q 285 472 271 486 q 319 458 299 458 l 569 458 q 721 401 664 458 q 778 250 778 344 l 778 194 q 721 43 778 100 q 569 -14 664 -14 q 42 14 324 -14 l 42 194 z "},"і":{"ha":444,"x_min":28,"x_max":375,"o":"m 375 708 l 375 0 l 132 0 l 132 521 l 28 521 l 28 708 l 375 708 m 132 986 l 375 986 l 375 792 l 132 792 l 132 986 z "},"ї":{"ha":472,"x_min":-42,"x_max":514,"o":"m -42 986 l 194 986 l 194 792 l -42 792 l -42 986 m 278 986 l 514 986 l 514 792 l 278 792 l 278 986 m 394 708 l 394 0 l 151 0 l 151 521 l 47 521 l 47 708 l 394 708 z "},"ј":{"ha":417,"x_min":-125,"x_max":347,"o":"m 139 -250 q -125 -236 10 -250 l -125 -56 l 56 -56 q 90 -42 76 -56 q 104 -7 104 -28 l 104 708 l 347 708 l 347 -42 q 290 -193 347 -136 q 139 -250 233 -250 m 104 986 l 347 986 l 347 792 l 104 792 l 104 986 z "},"љ":{"ha":1257,"x_min":14,"x_max":1229,"o":"m 153 -14 q 14 0 93 -14 l 14 181 l 69 181 q 125 236 122 181 l 153 736 l 771 736 l 771 493 l 1021 493 q 1172 436 1115 493 q 1229 285 1229 379 l 1229 208 q 1172 57 1229 114 q 1021 0 1115 0 l 542 0 l 542 549 l 382 549 l 361 194 q 299 43 356 100 q 153 -14 242 -14 m 938 167 q 972 181 958 167 q 986 215 986 194 l 986 264 q 972 299 986 285 q 938 313 958 313 l 771 313 l 771 167 l 938 167 z "},"њ":{"ha":1243,"x_min":69,"x_max":1215,"o":"m 528 0 l 528 313 l 313 313 l 313 0 l 69 0 l 69 736 l 313 736 l 313 493 l 528 493 l 528 736 l 757 736 l 757 493 l 1007 493 q 1158 436 1101 493 q 1215 285 1215 379 l 1215 208 q 1158 57 1215 114 q 1007 0 1101 0 l 528 0 m 924 181 q 958 194 944 181 q 972 229 972 208 l 972 264 q 958 299 972 285 q 924 313 944 313 l 757 313 l 757 181 l 924 181 z "},"ћ":{"ha":917,"x_min":28,"x_max":861,"o":"m 354 597 q 590 625 489 625 l 653 625 q 804 568 747 625 q 861 417 861 511 l 861 0 l 618 0 l 618 389 q 604 424 618 410 q 569 438 590 438 l 521 438 q 424 432 467 438 q 354 424 381 426 l 354 0 l 111 0 l 111 688 l 28 688 l 28 861 l 111 861 l 139 972 l 354 972 l 354 861 l 528 861 l 528 688 l 354 688 l 354 597 z "},"ќ":{"ha":833,"x_min":69,"x_max":833,"o":"m 333 792 l 417 1028 l 667 1028 l 514 792 l 333 792 m 417 278 l 313 278 l 313 0 l 69 0 l 69 736 l 313 736 l 313 465 l 424 465 l 500 618 q 631 739 542 707 q 692 750 663 750 q 778 743 739 750 l 813 736 l 813 549 l 764 549 q 694 507 717 549 l 625 368 l 833 0 l 569 0 l 417 278 z "},"ў":{"ha":792,"x_min":-14,"x_max":819,"o":"m 333 792 q 153 972 153 792 l 153 1014 l 333 1014 l 333 979 q 347 944 333 958 q 382 931 361 931 l 424 931 q 458 944 444 931 q 472 979 472 958 l 472 1014 l 653 1014 l 653 972 q 472 792 653 792 l 333 792 m 264 -250 q 83 -236 190 -250 l 83 -56 l 208 -56 q 277 -26 261 -56 q 271 56 293 3 l -14 736 l 243 736 l 417 264 l 563 736 l 819 736 l 542 -28 q 438 -194 501 -137 q 264 -250 374 -250 z "},"џ":{"ha":875,"x_min":69,"x_max":806,"o":"m 69 0 l 69 736 l 313 736 l 313 188 l 563 188 l 563 736 l 806 736 l 806 0 l 563 0 l 549 -167 l 326 -167 l 313 0 l 69 0 z "},"Ґ":{"ha":854,"x_min":83,"x_max":840,"o":"m 333 778 l 333 0 l 83 0 l 83 972 l 604 972 l 618 1111 l 840 1111 l 840 778 l 333 778 z "},"ґ":{"ha":681,"x_min":69,"x_max":667,"o":"m 438 736 l 451 861 l 667 861 l 667 549 l 314 549 l 314 0 l 69 0 l 69 736 l 438 736 z "},"–":{"ha":875,"x_min":42,"x_max":833,"o":"m 42 396 l 42 576 l 833 576 l 833 396 l 42 396 z "},"—":{"ha":1111,"x_min":42,"x_max":1069,"o":"m 42 396 l 42 576 l 1069 576 l 1069 396 l 42 396 z "},"‘":{"ha":333,"x_min":42,"x_max":292,"o":"m 292 625 l 42 625 l 42 819 l 139 972 l 264 972 l 208 833 l 292 833 l 292 625 z "},"’":{"ha":333,"x_min":42,"x_max":292,"o":"m 42 972 l 292 972 l 292 778 l 194 625 l 69 625 l 125 764 l 42 764 l 42 972 z "},"‚":{"ha":333,"x_min":42,"x_max":292,"o":"m 42 208 l 292 208 l 292 14 l 194 -139 l 69 -139 l 125 0 l 42 0 l 42 208 z "},"“":{"ha":639,"x_min":42,"x_max":597,"o":"m 597 625 l 347 625 l 347 819 l 444 972 l 569 972 l 514 833 l 597 833 l 597 625 m 292 625 l 42 625 l 42 819 l 139 972 l 264 972 l 208 833 l 292 833 l 292 625 z "},"”":{"ha":639,"x_min":42,"x_max":597,"o":"m 42 972 l 292 972 l 292 778 l 194 625 l 69 625 l 125 764 l 42 764 l 42 972 m 347 972 l 597 972 l 597 778 l 500 625 l 375 625 l 431 764 l 347 764 l 347 972 z "},"„":{"ha":639,"x_min":42,"x_max":597,"o":"m 42 208 l 292 208 l 292 14 l 194 -139 l 69 -139 l 125 0 l 42 0 l 42 208 m 347 208 l 597 208 l 597 14 l 500 -139 l 375 -139 l 431 0 l 347 0 l 347 208 z "},"†":{"ha":819,"x_min":28,"x_max":792,"o":"m 792 667 l 792 472 l 542 472 l 542 -236 l 292 -236 l 292 472 l 28 472 l 28 667 l 292 667 l 292 972 l 542 972 l 542 667 l 792 667 z "},"‡":{"ha":792,"x_min":28,"x_max":764,"o":"m 528 14 l 528 -236 l 278 -236 l 278 14 l 28 14 l 28 208 l 278 208 l 278 528 l 28 528 l 28 722 l 278 722 l 278 972 l 528 972 l 528 722 l 764 722 l 764 528 l 528 528 l 528 208 l 764 208 l 764 14 l 528 14 z "},"•":{"ha":500,"x_min":69,"x_max":431,"o":"m 278 667 q 388 624 346 667 q 431 514 431 582 l 431 458 q 388 348 431 390 q 278 306 346 306 l 222 306 q 112 348 154 306 q 69 458 69 390 l 69 514 q 112 624 69 582 q 222 667 154 667 l 278 667 z "},"…":{"ha":1000,"x_min":42,"x_max":958,"o":"m 42 208 l 292 208 l 292 0 l 42 0 l 42 208 m 375 208 l 625 208 l 625 0 l 375 0 l 375 208 m 708 208 l 958 208 l 958 0 l 708 0 l 708 208 z "},"‰":{"ha":1708,"x_min":28,"x_max":1681,"o":"m 208 0 l 764 972 l 972 972 l 431 0 l 208 0 m 500 646 q 455 517 500 563 q 326 472 410 472 l 201 472 q 73 517 118 472 q 28 646 28 563 l 28 813 q 73 941 28 896 q 201 986 118 986 l 326 986 q 455 941 410 986 q 500 813 500 896 l 500 646 m 333 813 q 285 861 333 861 l 243 861 q 194 813 194 861 l 194 646 q 243 597 194 597 l 285 597 q 333 646 333 597 l 333 813 m 1167 160 q 1122 31 1167 76 q 993 -14 1076 -14 l 868 -14 q 740 31 785 -14 q 694 160 694 76 l 694 326 q 740 455 694 410 q 868 500 785 500 l 993 500 q 1122 455 1076 500 q 1167 326 1167 410 l 1167 160 m 1000 326 q 951 375 1000 375 l 910 375 q 861 326 861 375 l 861 160 q 910 111 861 111 l 951 111 q 1000 160 1000 111 l 1000 326 m 1681 160 q 1635 31 1681 76 q 1507 -14 1590 -14 l 1382 -14 q 1253 31 1299 -14 q 1208 160 1208 76 l 1208 326 q 1253 455 1208 410 q 1382 500 1299 500 l 1507 500 q 1635 455 1590 500 q 1681 326 1681 410 l 1681 160 m 1514 326 q 1465 375 1514 375 l 1424 375 q 1375 326 1375 375 l 1375 160 q 1424 111 1375 111 l 1465 111 q 1514 160 1514 111 l 1514 326 z "},"‹":{"ha":501,"x_min":14,"x_max":474,"o":"m 474 125 l 333 0 l 14 368 l 333 736 l 474 613 l 263 368 l 474 125 z "},"›":{"ha":501,"x_min":28,"x_max":488,"o":"m 239 368 l 28 613 l 168 736 l 488 368 l 168 0 l 28 125 l 239 368 z "},"⁰":{"ha":528,"x_min":28,"x_max":500,"o":"m 500 646 q 455 517 500 563 q 326 472 410 472 l 201 472 q 73 517 118 472 q 28 646 28 563 l 28 813 q 73 941 28 896 q 201 986 118 986 l 326 986 q 455 941 410 986 q 500 813 500 896 l 500 646 m 333 813 q 285 861 333 861 l 243 861 q 194 813 194 861 l 194 646 q 243 597 194 597 l 285 597 q 333 646 333 597 l 333 813 z "},"⁴":{"ha":500,"x_min":14,"x_max":486,"o":"m 285 576 l 14 576 l 14 701 l 174 986 l 347 986 l 188 701 l 285 701 l 285 792 l 438 792 l 438 701 l 486 701 l 486 576 l 438 576 l 438 472 l 285 472 l 285 576 z "},"€":{"ha":917,"x_min":14,"x_max":889,"o":"m 889 14 q 375 -14 579 -14 q 175 50 239 -14 q 111 250 111 114 l 111 306 l 14 306 l 28 451 l 111 451 l 111 507 l 14 507 l 28 653 l 111 653 l 111 694 q 177 906 111 840 q 389 972 243 972 l 889 972 l 889 778 l 444 778 q 361 694 361 778 l 361 653 l 694 653 l 694 507 l 361 507 l 361 451 l 694 451 l 694 306 l 361 306 l 361 250 q 380 199 361 218 q 428 181 399 181 q 492 181 457 181 q 564 183 526 182 q 640 186 601 185 q 738 192 678 188 q 889 201 799 196 l 889 14 z "},"№":{"ha":1542,"x_min":83,"x_max":1486,"o":"m 1042 417 l 1458 417 l 1458 278 l 1042 278 l 1042 417 m 931 0 l 667 0 l 333 583 l 333 0 l 83 0 l 83 972 l 347 972 l 681 389 l 681 972 l 931 972 l 931 0 m 1486 646 q 1441 517 1486 563 q 1313 472 1396 472 l 1188 472 q 1059 517 1104 472 q 1014 646 1014 563 l 1014 813 q 1059 941 1014 896 q 1188 986 1104 986 l 1313 986 q 1441 941 1396 986 q 1486 813 1486 896 l 1486 646 m 1319 813 q 1271 861 1319 861 l 1229 861 q 1181 813 1181 861 l 1181 646 q 1229 597 1181 597 l 1271 597 q 1319 646 1319 597 l 1319 813 z "},"™":{"ha":1292,"x_min":14,"x_max":1236,"o":"m 361 847 l 361 458 l 181 458 l 181 847 l 14 847 l 14 972 l 528 972 l 528 847 l 361 847 m 833 556 l 750 708 l 750 458 l 569 458 l 569 972 l 750 972 l 903 694 l 1056 972 l 1236 972 l 1236 458 l 1056 458 l 1056 708 l 972 556 l 833 556 z "}}}
